<svg xmlns="http://www.w3.org/2000/svg" width="75.13" height="75.16" viewBox="0 0 75.13 75.16"><title>house</title><path d="M173.89,137.67c-6.57-23.8-14.58-24-16.27-23.75h0c-1.7-.25-9.7,0-16.25,23.73-.47,1.63-.89,3.28-1.26,5-2-1.76-4-3.55-6-5.26-2.24-2-4.5-2.06-6.88-.15-1,.78-1.95,1.66-2.86,2.51l-.94.88c-1.86,1.76-3.78,3.58-5.75,5.35-2.4,2.1-4.93,4.23-7.39,6.29-1.06.91-2.06,1.81-3.07,2.72s-2,1.79-3,2.69c-1.58,1.37-3,3-3,5.65v21a5.13,5.13,0,0,0,5.06,4.72h52.43v-16.8h-2V187h-27.2v-22.6h-15.8V187h-7.24a3.19,3.19,0,0,1-3.26-2.8v-20.9c0-1.75.9-2.88,2.35-4.14,1.06-.9,2.06-1.81,3.07-2.72s2-1.78,3-2.67c2.46-2.06,5-4.2,7.43-6.33,2-1.8,3.93-3.62,5.81-5.4l.92-.86c.87-.82,1.78-1.67,2.73-2.4,1.63-1.3,2.8-1.28,4.32.08,2.31,2,4.62,4,6.85,6l0,0c-1.54,8.89-.6,15.22,2.86,19.36,3,3.66,8,5.44,15.1,5.44,7.36,0,12.4-1.92,15.41-5.88C177,158.61,177.3,150,173.89,137.67Zm-58.27,28.76h11.8V187h-11.8Zm55.82-3.79c-2.61,3.43-7.13,5.09-13.82,5.09-6.48,0-10.91-1.54-13.57-4.72-2.86-3.42-3.74-9-2.63-16.5l1.45,1.28c1,.85,2.85,2.47,4.69,4.09s3.71,3.26,4.71,4.11h0l4.44,3.89a1,1,0,0,0,.9.56,1,1,0,0,0,.67-.25l10.3-9.2-1.33-1.49-8.64,7.71V145.78l6.94-5.78-1.28-1.54-5.66,4.72V127h-2v16.1L151,138.46,149.69,140l6.93,5.71v11.42l-8.74-7.65h0c-1.49-1.31-2.88-2.52-3.69-3.21l-2.35-2.09c.41-2.09.89-4.05,1.46-6,6.46-23.44,14.05-22.3,14.12-22.29h.42c.07,0,7.66-1.14,14.13,22.29C175.15,149.77,175,158,171.44,162.64Z" transform="translate(-101.12 -113.88)" fill="#010101"/></svg>