<svg xmlns="http://www.w3.org/2000/svg" width="82.71" height="84.8" viewBox="0 0 82.71 84.8"><title>bulb</title><path d="M143.66,192.79h-4.6a2.18,2.18,0,0,1-2.08-1.7l-.32-1.46-2.45-2.08a1,1,0,1,1,1.3-1.52l3,2.51.47,2.13a.22.22,0,0,0,.13.12h4.6s.11-.06.12-.1l.48-2.15,3-2.51a1,1,0,1,1,1.3,1.52l-2.45,2.08-.33,1.48A2.17,2.17,0,0,1,143.66,192.79Z" transform="translate(-99.95 -107.99)" fill="#010101"/><path d="M149.36,176.59h-16a2.15,2.15,0,0,1-2.2-2.2v-5.53A17.51,17.51,0,0,0,129,164.1c-1-1.76-1.73-3-2.38-4.07a9.7,9.7,0,0,1-1-1.7,18.21,18.21,0,0,1-1.22-2.25,17.07,17.07,0,0,1-1.78-8.23,18.81,18.81,0,0,1,19-18.76,19,19,0,0,1,17,27,6.47,6.47,0,0,1-.42.8c-.21.35-.5.84-.81,1.46l-.09.15a10.05,10.05,0,0,0-.8,1.44l-.79,1.34c-.51.85-1.05,1.76-1.64,2.81a17.76,17.76,0,0,0-2.17,4.84v5.67l-.08.19A2.78,2.78,0,0,1,149.36,176.59Zm-7.89-45.5a16.81,16.81,0,0,0-16.81,16.8,15.18,15.18,0,0,0,1.59,7.35l.06.13c.08.24.7,1.31,1.11,2l.07.13a8,8,0,0,0,.8,1.41c.69,1.09,1.44,2.4,2.44,4.17,2,3.36,2.43,5.28,2.43,5.69v5.6c0,.15.05.2.2.2h16a.78.78,0,0,0,.6-.43l0-5.63a19.63,19.63,0,0,1,2.42-5.47c.57-1,1.13-1.95,1.64-2.81l.75-1.26a11.92,11.92,0,0,1,.9-1.62c.32-.64.61-1.13.83-1.51a4.76,4.76,0,0,0,.29-.5l0-.1a17,17,0,0,0-15.21-24.17Z" transform="translate(-99.95 -107.99)" fill="#010101"/><path d="M151.16,179.29" transform="translate(-99.95 -107.99)" fill="none" stroke="#010101" stroke-miterlimit="10" stroke-width="2"/><rect x="31.51" y="74.5" width="19.6" height="2" fill="#010101"/><rect x="40.31" width="2" height="14.9" fill="#010101"/><rect x="99.96" y="147.74" width="15.9" height="2" transform="translate(-100.89 -107.3) rotate(-0.36)" fill="#010101"/><rect x="173.76" y="140.84" width="2" height="15.8" transform="translate(-75.03 214.57) rotate(-89.64)" fill="#010101"/><rect x="109.3" y="172.09" width="16.71" height="2" transform="translate(-189.62 36.46) rotate(-47.93)" fill="#010101"/><rect x="157.3" y="124.29" width="15.22" height="2" transform="translate(-141.41 34.79) rotate(-42.07)" fill="#010101"/><rect x="116.66" y="117.72" width="2" height="15.15" transform="translate(-154.15 19.93) rotate(-47.68)" fill="#010101"/><rect x="163.91" y="164.7" width="2" height="16.78" transform="translate(-173.52 48.24) rotate(-42.34)" fill="#010101"/><rect x="31.51" y="70.6" width="19.6" height="2" fill="#010101"/></svg>