<?xml version="1.0" encoding="utf-8"?>
<!-- Generator: Adobe Illustrator 23.1.1, SVG Export Plug-In . SVG Version: 6.00 Build 0)  -->
<svg version="1.1" id="Livello_1" xmlns="http://www.w3.org/2000/svg" xmlns:xlink="http://www.w3.org/1999/xlink" x="0px" y="0px"
	 viewBox="0 0 45 45" style="enable-background:new 0 0 45 45;" xml:space="preserve">
<style type="text/css">
	.st0{fill:#FFFFFF;}
	.st1{fill:none;stroke:#000000;stroke-width:0.9849;stroke-linecap:round;stroke-linejoin:round;stroke-miterlimit:10;}
</style>
<path id="Rectangle_453" class="st0" d="M8,0h29c4.4,0,8,3.6,8,8v29c0,4.4-3.6,8-8,8H8c-4.4,0-8-3.6-8-8V8C0,3.6,3.6,0,8,0z"/>
<g id="LinkedIn_1_">
	<rect x="10.4" y="17.2" class="st1" width="5.1" height="16.1"/>
	<path class="st1" d="M29.3,17.1c-2.9,0-4.7,1.6-5.1,2.7v-2.5h-5.7c0.1,1.3,0,16.1,0,16.1h5.7v-8.7c0-0.5,0-1,0.1-1.3
		c0.4-1,1.2-2,2.7-2c2,0,2.9,1.5,2.9,3.7v8.3h5.8v-8.9C35.8,19.4,32.9,17.1,29.3,17.1z"/>
	<path class="st1" d="M12.8,9.6c-1.8,0-3.1,1.2-3.1,2.8s1.2,2.8,3,2.8l0,0c1.9,0,3.1-1.2,3.1-2.8C15.9,10.8,14.7,9.6,12.8,9.6z"/>
</g>
</svg>
