<svg xmlns="http://www.w3.org/2000/svg" width="70.1" height="78.8" viewBox="0 0 70.1 78.8"><title>lock</title><path d="M144.05,165h0a18.39,18.39,0,0,1-6.35-1.16l-.11,0c-6.72-2.54-28.64-13.15-28.64-42.89,0-1.52.16-7.17.31-12.16.1-3.49.18-6.51.19-7.19a4,4,0,0,1,1.19-3.26l.15-.13A8.21,8.21,0,0,1,113.05,97l2.73-1c2.5-1,5.09-2,7.76-2.76,1.89-.59,3.83-1.37,5.72-2.13,1-.39,1.94-.78,2.91-1.15,2.87-1,5.8-2,8.68-3.19a9.68,9.68,0,0,1,3.08-.57,9,9,0,0,1,3,.56c2.87,1.09,5.8,2.2,8.67,3.19,1,.38,2,.77,2.95,1.16,1.88.76,3.83,1.54,5.72,2.13C167,94,169.57,95,172.08,96c.91.35,1.82.7,2.75,1a6.41,6.41,0,0,1,2.44,1.29,3.75,3.75,0,0,1,1.26,3.22c0,.74.1,4,.2,7.44.14,4.88.3,10.41.3,11.91,0,29.74-21.93,40.35-28.65,42.89l-.1,0a20.66,20.66,0,0,1-6.2,1.17ZM112,99.75a2,2,0,0,0-.55,1.62v.11c0,.6-.09,3.7-.2,7.29-.13,4.73-.3,10.62-.3,12.11,0,28.46,20.94,38.6,27.35,41l.1,0a16.6,16.6,0,0,0,5.62,1,18.73,18.73,0,0,0,5.58-1l.09,0c6.42-2.42,27.36-12.56,27.36-41,0-1.47-.16-7-.3-11.85-.11-3.7-.2-6.89-.2-7.55v-.11a1.71,1.71,0,0,0-.55-1.53,4.2,4.2,0,0,0-1.69-.89l-.11,0-2.82-1.06c-2.47-.95-5-1.92-7.62-2.72-2-.61-4-1.41-5.89-2.18q-1.44-.58-2.88-1.14c-2.87-1-5.81-2.1-8.65-3.18a7.1,7.1,0,0,0-2.39-.45,7.42,7.42,0,0,0-2.39.45c-2.86,1.18-5.82,2.2-8.69,3.19L130,93c-1.92.77-3.9,1.57-5.88,2.18-2.6.8-5.16,1.77-7.63,2.72l-2.81,1.06A6.55,6.55,0,0,0,112,99.75Z" transform="translate(-108.93 -86.18)" fill="#010101"/><path d="M155.73,144.08h-23.2a5.78,5.78,0,0,1-5.6-5.8c0-1.51,0-5,0-8.43,0-3.14,0-6.17,0-7.37,0-1.86,1-4.23,5.64-5h21.56v-6.2c0-5.33-1.63-7.4-5.8-7.4-2.76,0-5.88,0-8.57.1-3.87,0-5.73,1.83-5.73,5.6v4.8h-2v-4.8c0-4.9,2.73-7.6,7.7-7.6,2.68-.1,5.82-.1,8.6-.1,7,0,7.8,5.36,7.8,9.4v6.4a6.46,6.46,0,0,1,5.3,6.76c-.07,2.81-.05,5.76,0,8.61,0,1.45,0,2.89,0,4.33a6.7,6.7,0,0,1-2.35,5.46A5.16,5.16,0,0,1,155.73,144.08Zm-22.82-24.6c-3.88.65-3.88,2.35-3.88,3,0,1.2,0,4.24-.05,7.39,0,3.39,0,6.9,0,8.41a3.79,3.79,0,0,0,3.64,3.8h23.16a3.19,3.19,0,0,0,2.14-.76,4.67,4.67,0,0,0,1.66-3.89c0-1.48,0-2.92,0-4.36,0-2.87,0-5.83,0-8.72a4.45,4.45,0,0,0-4.33-4.77l-1,0v-.06Z" transform="translate(-108.93 -86.18)" fill="#010101"/><path d="M144.93,137.58h-2v-5.42a4.2,4.2,0,1,1,5.2-4.08,4,4,0,0,1-1,2.85,3.92,3.92,0,0,1-2.23,1.28Zm-1-7.3h.4a1.94,1.94,0,0,0,1.32-.66,2.07,2.07,0,0,0,.48-1.48,2.2,2.2,0,1,0-2.2,2.14Z" transform="translate(-108.93 -86.18)" fill="#010101"/></svg>