<svg width="156" height="172" viewBox="0 0 156 172" fill="none" xmlns="http://www.w3.org/2000/svg">
<g clip-path="url(#clip0)">
<path d="M37.289 81.4358C34.389 81.5358 31.489 80.9358 28.889 79.7358C26.689 78.6358 24.689 77.1358 22.989 75.3358L28.389 69.9358C30.689 72.7358 34.189 74.2358 37.789 74.2358C39.389 74.3358 40.989 73.9358 42.289 73.0358C43.289 72.2358 43.789 71.0358 43.789 69.7358C43.789 68.8358 43.489 67.8358 42.889 67.1358C42.289 66.4358 41.189 65.9358 39.389 65.7358L35.689 65.2358C31.689 64.7358 28.789 63.5358 26.889 61.6358C24.989 59.5358 23.989 56.7358 24.089 53.9358C24.089 52.3358 24.389 50.7358 25.089 49.3358C25.689 47.9358 26.689 46.7358 27.889 45.7358C29.189 44.6358 30.689 43.8358 32.289 43.4358C36.689 42.1358 41.389 42.3358 45.689 43.9358C47.789 44.8358 49.689 46.1358 51.189 47.8358L45.789 53.3358C44.889 52.3358 43.789 51.4358 42.489 50.8358C40.989 50.1358 39.289 49.8358 37.689 49.8358C36.289 49.7358 34.789 50.0358 33.589 50.8358C32.689 51.4358 32.189 52.4358 32.289 53.5358C32.189 54.5358 32.589 55.6358 33.389 56.3358C34.389 57.0358 35.589 57.4358 36.789 57.5358L40.489 58.1358C44.389 58.7358 47.189 59.9358 49.089 61.7358C50.989 63.5358 51.889 66.0358 51.889 69.3358C51.889 71.0358 51.589 72.7358 50.889 74.3358C50.289 75.8358 49.289 77.1358 48.089 78.2358C46.789 79.3358 45.189 80.2358 43.489 80.7358C41.489 81.1358 39.389 81.4358 37.289 81.4358Z" fill="#161615"/>
<path d="M55.889 80.736V74.236H60.689V49.736H55.889V43.136H73.789V49.636H68.989V74.136H73.789V80.636L55.889 80.736Z" fill="#161615"/>
<path d="M79.289 80.736V43.136H87.489V73.536H101.789V80.836H79.289V80.736Z" fill="#161615"/>
<path d="M131.989 80.7359H105.389V73.3359L116.989 63.4359C117.989 62.5359 118.889 61.7359 119.589 60.9359C120.289 60.2359 120.789 59.5359 121.389 58.7359C121.789 58.1359 122.089 57.4359 122.389 56.6359C122.589 55.9359 122.689 55.1359 122.689 54.4359V53.6359C122.689 52.9359 122.589 52.3359 122.289 51.7359C121.989 51.2359 121.589 50.7359 121.189 50.4359C120.689 50.0359 120.189 49.8359 119.589 49.6359C118.889 49.6359 118.289 49.5359 117.689 49.5359C116.889 49.5359 116.089 49.6359 115.389 49.9359C114.789 50.2359 114.189 50.6359 113.689 51.1359C113.189 51.6359 112.789 52.2359 112.489 52.8359C112.189 53.4359 111.889 54.1359 111.689 54.8359L104.589 52.1359C104.989 50.8359 105.589 49.6359 106.389 48.4359C107.189 47.2359 108.089 46.2359 109.189 45.3359C110.389 44.4359 111.789 43.7359 113.189 43.2359C114.889 42.7359 116.589 42.5359 118.389 42.5359C120.189 42.5359 122.089 42.8359 123.789 43.4359C125.289 43.9359 126.589 44.7359 127.789 45.8359C128.889 46.8359 129.689 48.0359 130.289 49.4359C131.389 52.3359 131.389 55.4359 130.389 58.3359C129.889 59.6359 129.089 60.9359 128.189 62.0359C127.189 63.2359 126.189 64.3359 124.989 65.3359C123.789 66.3359 122.489 67.4359 121.189 68.5359L114.189 74.0359H131.989V80.7359Z" fill="#161615"/>
<path d="M33.319 127.147V89.5469H51.119C52.719 89.5469 54.319 89.8469 55.819 90.4469C57.219 91.0469 58.419 91.8469 59.419 92.9469C60.419 94.0469 61.219 95.3469 61.719 96.7469C62.819 99.9469 62.819 103.347 61.719 106.547C61.219 107.947 60.419 109.247 59.419 110.347C58.419 111.447 57.219 112.247 55.819 112.847C54.319 113.247 52.719 113.547 51.119 113.547H41.519V127.147H33.319ZM41.519 106.447H50.119C51.119 106.547 52.219 106.147 53.019 105.547C53.719 104.847 54.119 103.847 54.019 102.747V100.347C54.119 99.3469 53.719 98.3469 52.919 97.5469C52.119 96.8469 51.119 96.5469 50.019 96.6469H41.519V106.447Z" fill="#161615"/>
<path d="M67.319 127.147V89.5469H75.519V119.847H89.819V127.147H67.319Z" fill="#161615"/>
<path d="M15.795 26.1381L12.495 12.0381H14.795L16.295 18.8381L17.295 23.5381H17.395L18.395 18.8381L20.095 12.0381H22.595L24.295 18.8381L25.395 23.5381H25.495L26.495 18.8381L27.995 12.0381H30.195L26.695 26.1381H24.095L22.395 18.9381L21.395 14.6381L20.195 18.9381L18.395 26.2381L15.795 26.1381Z" fill="#161615"/>
<path d="M37.695 26.4381C36.795 26.4381 35.995 26.3381 35.195 25.9381C34.495 25.6381 33.795 25.1381 33.295 24.5381C32.695 23.8381 32.295 23.1381 32.095 22.2381C31.495 20.1381 31.495 18.0381 32.095 15.9381C32.395 15.1381 32.795 14.3381 33.295 13.6381C33.795 13.0381 34.495 12.5381 35.195 12.2381C36.795 11.6381 38.595 11.6381 40.195 12.2381C40.895 12.5381 41.595 13.0381 42.095 13.6381C42.695 14.3381 43.095 15.0381 43.295 15.9381C43.895 18.0381 43.895 20.1381 43.295 22.2381C42.995 23.0381 42.595 23.8381 42.095 24.5381C41.595 25.1381 40.895 25.6381 40.195 25.9381C39.395 26.2381 38.595 26.4381 37.695 26.4381ZM37.695 24.4381C38.195 24.4381 38.695 24.3381 39.195 24.1381C39.595 23.9381 39.995 23.6381 40.395 23.3381C40.695 22.9381 40.995 22.5381 41.095 22.0381C41.295 21.4381 41.395 20.8381 41.395 20.3381V18.0381C41.395 17.4381 41.295 16.8381 41.095 16.3381C40.895 15.8381 40.695 15.4381 40.395 15.0381C40.095 14.6381 39.695 14.4381 39.195 14.2381C38.195 13.8381 37.195 13.8381 36.195 14.2381C35.795 14.4381 35.395 14.7381 35.095 15.0381C34.695 15.3381 34.495 15.8381 34.295 16.2381C34.095 16.8381 33.995 17.4381 33.995 17.9381V20.1381C33.995 20.7381 34.095 21.3381 34.295 21.8381C34.495 22.3381 34.695 22.7381 34.995 23.1381C35.295 23.5381 35.695 23.7381 36.095 23.9381C36.695 24.3381 37.195 24.4381 37.695 24.4381Z" fill="#161615"/>
<path d="M48.895 26.1381H46.595V12.0381H52.695C53.795 11.9381 54.895 12.4381 55.695 13.1381C56.995 14.8381 57.095 17.0381 56.095 18.8381C55.595 19.5381 54.895 20.0381 54.095 20.2381L57.095 26.1381H54.495L51.695 20.4381H48.895V26.1381ZM52.495 18.5381C52.995 18.5381 53.495 18.4381 53.895 18.0381C54.195 17.7381 54.395 17.2381 54.395 16.7381V15.8381C54.395 15.3381 54.295 14.8381 53.895 14.5381C53.495 14.2381 52.995 14.0381 52.495 14.1381H48.895V18.6381L52.495 18.5381Z" fill="#161615"/>
<path d="M59.895 26.1381V12.0381H62.195V24.1381H67.895V26.1381H59.895Z" fill="#161615"/>
<path d="M70.195 12.0381H75.195C75.995 12.0381 76.895 12.1381 77.695 12.4381C78.395 12.8381 78.995 13.2381 79.495 13.8381C79.995 14.4381 80.495 15.2381 80.695 16.0381C81.295 18.0381 81.295 20.1381 80.695 22.2381C80.495 23.0381 79.995 23.8381 79.495 24.4381C78.995 25.0381 78.295 25.4381 77.595 25.7381C76.795 26.0381 75.995 26.2381 75.095 26.1381H70.095V12.0381H70.195ZM75.195 24.1381C76.095 24.1381 77.095 23.8381 77.695 23.1381C78.395 22.3381 78.695 21.3381 78.695 20.2381V18.0381C78.795 16.9381 78.395 15.9381 77.695 15.1381C76.995 14.4381 76.095 14.1381 75.195 14.1381H72.495V24.2381H75.195V24.1381Z" fill="#161615"/>
<path d="M88.795 26.1381V12.0381H97.595V14.0381H91.095V17.9381H96.895V19.9381H91.095V26.0381L88.795 26.1381Z" fill="#161615"/>
<path d="M99.695 26.1381V24.2381H101.595V13.9381H99.695V12.0381H105.795V13.9381H103.895V24.3381H105.795V26.2381L99.695 26.1381Z" fill="#161615"/>
<path d="M110.995 26.1381H108.695V12.0381H114.795C115.895 11.9381 116.995 12.4381 117.795 13.1381C119.095 14.7381 119.295 16.9381 118.195 18.7381C117.695 19.4381 116.995 19.9381 116.195 20.1381L119.195 26.0381H116.695L113.895 20.3381H111.095L110.995 26.1381ZM114.595 18.5381C115.095 18.5381 115.595 18.4381 115.995 18.0381C116.295 17.7381 116.495 17.2381 116.495 16.7381V15.8381C116.495 15.3381 116.395 14.8381 115.995 14.5381C115.595 14.2381 115.095 14.0381 114.595 14.0381H110.995V18.5381H114.595Z" fill="#161615"/>
<path d="M126.095 26.438C125.095 26.438 123.995 26.238 123.095 25.838C122.295 25.438 121.595 24.838 120.995 24.138L122.595 22.638C122.995 23.238 123.595 23.638 124.195 24.038C124.795 24.338 125.495 24.538 126.195 24.538C126.895 24.638 127.695 24.338 128.195 23.938C128.695 23.538 128.895 22.938 128.895 22.338C128.895 21.838 128.695 21.338 128.395 21.038C127.895 20.638 127.295 20.338 126.695 20.338L125.495 19.938C124.395 19.838 123.295 19.338 122.395 18.538C121.695 17.838 121.295 16.838 121.395 15.838C121.395 15.238 121.495 14.638 121.795 14.138C121.995 13.638 122.395 13.238 122.795 12.838C123.295 12.438 123.795 12.238 124.295 12.038C124.995 11.838 125.595 11.738 126.295 11.738C127.295 11.738 128.195 11.938 129.095 12.338C129.895 12.738 130.595 13.238 131.095 13.938L129.495 15.438C129.095 14.938 128.695 14.538 128.195 14.338C127.595 14.038 126.895 13.938 126.195 13.938C125.495 13.938 124.895 14.038 124.295 14.438C123.895 14.738 123.595 15.338 123.595 15.838C123.595 16.338 123.795 16.838 124.095 17.138C124.595 17.438 125.195 17.738 125.795 17.838L127.095 18.138C128.195 18.238 129.295 18.738 130.195 19.538C130.895 20.238 131.195 21.238 131.195 22.238C131.195 22.838 131.095 23.438 130.895 24.038C130.695 24.538 130.295 25.038 129.895 25.438C129.395 25.838 128.895 26.138 128.295 26.338C127.595 26.338 126.795 26.438 126.095 26.438Z" fill="#161615"/>
<path d="M138.895 14.1379V26.2379H136.595V14.1379H132.395V12.1379H143.095V14.1379H138.895Z" fill="#161615"/>
<path d="M155.5 172H0V0H155.5V172ZM2.2 169.8H153.3V2.2H2.2V169.8Z" fill="#161615"/>
<path d="M143.966 34H11.966V35H143.966V34Z" fill="#161615"/>
<path d="M143.966 134.957H11.966V135.957H143.966V134.957Z" fill="#161615"/>
<path d="M113.213 123.919C111.413 126.519 108.513 128.019 105.313 127.819C101.713 127.819 99.013 126.519 97.213 124.019C95.413 121.519 94.513 117.819 94.513 113.019C94.513 108.219 95.413 104.519 97.213 102.019C99.013 99.5191 101.713 98.2191 105.313 98.2191C111.013 98.2191 113.213 101.519 113.213 101.519V87.3191H121.213V127.119H113.213V123.919V123.919ZM108.013 121.319C109.313 121.419 110.613 121.019 111.713 120.219C112.713 119.519 113.213 118.419 113.213 117.219V108.919C113.213 107.719 112.713 106.619 111.713 105.919C110.613 105.119 109.313 104.719 108.013 104.819C106.613 104.819 105.213 105.319 104.313 106.419C103.313 107.619 102.713 109.119 102.813 110.719V115.619C102.713 117.219 103.213 118.719 104.313 119.919C105.213 120.819 106.613 121.419 108.013 121.319Z" fill="#161615"/>
<path d="M13.363 160H11.767V146.738H17.049C18.2143 146.738 19.12 147.061 19.766 147.707C20.4247 148.353 20.754 149.284 20.754 150.5C20.754 151.475 20.526 152.28 20.07 152.913C19.6267 153.534 18.968 153.945 18.094 154.148L21.134 160H19.329L16.46 154.3H13.363V160ZM17.049 152.932C17.6823 152.932 18.17 152.767 18.512 152.438C18.8667 152.109 19.044 151.64 19.044 151.032V150.044C19.044 149.436 18.8667 148.967 18.512 148.638C18.17 148.309 17.6823 148.144 17.049 148.144H13.363V152.932H17.049ZM32.0333 160L30.7033 156.086H25.3453L24.0153 160H22.4003L27.0363 146.738H29.0693L33.7053 160H32.0333ZM28.0623 148.22H27.9673L25.7253 154.68H30.3043L28.0623 148.22ZM35.7122 146.738H40.1582C40.9815 146.738 41.7289 146.877 42.4002 147.156C43.0715 147.435 43.6415 147.853 44.1102 148.41C44.5915 148.955 44.9589 149.645 45.2122 150.481C45.4655 151.304 45.5922 152.267 45.5922 153.369C45.5922 154.471 45.4655 155.44 45.2122 156.276C44.9589 157.099 44.5915 157.79 44.1102 158.347C43.6415 158.892 43.0715 159.303 42.4002 159.582C41.7289 159.861 40.9815 160 40.1582 160H35.7122V146.738ZM40.1582 158.594C40.7029 158.594 41.2032 158.505 41.6592 158.328C42.1152 158.138 42.5079 157.866 42.8372 157.511C43.1665 157.156 43.4199 156.726 43.5972 156.219C43.7872 155.7 43.8822 155.111 43.8822 154.452V152.286C43.8822 151.627 43.7872 151.045 43.5972 150.538C43.4199 150.019 43.1665 149.582 42.8372 149.227C42.5079 148.872 42.1152 148.606 41.6592 148.429C41.2032 148.239 40.7029 148.144 40.1582 148.144H37.3082V158.594H40.1582ZM56.3496 160L55.0196 156.086H49.6616L48.3316 160H46.7166L51.3526 146.738H53.3856L58.0216 160H56.3496ZM52.3786 148.22H52.2836L50.0416 154.68H54.6206L52.3786 148.22ZM61.6245 160H60.0285V146.738H65.3105C66.4758 146.738 67.3815 147.061 68.0275 147.707C68.6862 148.353 69.0155 149.284 69.0155 150.5C69.0155 151.475 68.7875 152.28 68.3315 152.913C67.8882 153.534 67.2295 153.945 66.3555 154.148L69.3955 160H67.5905L64.7215 154.3H61.6245V160ZM65.3105 152.932C65.9438 152.932 66.4315 152.767 66.7735 152.438C67.1282 152.109 67.3055 151.64 67.3055 151.032V150.044C67.3055 149.436 67.1282 148.967 66.7735 148.638C66.4315 148.309 65.9438 148.144 65.3105 148.144H61.6245V152.932H65.3105ZM80.016 160.228C78.9394 160.228 78.021 160.025 77.261 159.62C76.501 159.202 75.855 158.632 75.323 157.91L76.501 156.922C76.9697 157.543 77.489 158.018 78.059 158.347C78.629 158.664 79.3004 158.822 80.073 158.822C81.023 158.822 81.745 158.594 82.239 158.138C82.7457 157.682 82.999 157.074 82.999 156.314C82.999 155.681 82.809 155.193 82.429 154.851C82.049 154.509 81.422 154.237 80.548 154.034L79.465 153.787C78.249 153.508 77.318 153.09 76.672 152.533C76.0387 151.963 75.722 151.165 75.722 150.139C75.722 149.556 75.8297 149.037 76.045 148.581C76.2604 148.125 76.558 147.745 76.938 147.441C77.3307 147.137 77.793 146.909 78.325 146.757C78.8697 146.592 79.465 146.51 80.111 146.51C81.1117 146.51 81.9667 146.694 82.676 147.061C83.398 147.428 84.006 147.967 84.5 148.676L83.303 149.55C82.9357 149.043 82.4924 148.644 81.973 148.353C81.4537 148.062 80.8077 147.916 80.035 147.916C79.1864 147.916 78.515 148.1 78.021 148.467C77.5397 148.822 77.299 149.36 77.299 150.082C77.299 150.715 77.5017 151.197 77.907 151.526C78.325 151.843 78.952 152.096 79.788 152.286L80.871 152.533C82.1757 152.824 83.1194 153.268 83.702 153.863C84.2847 154.458 84.576 155.25 84.576 156.238C84.576 156.846 84.4684 157.397 84.253 157.891C84.0504 158.385 83.7527 158.803 83.36 159.145C82.9674 159.487 82.486 159.753 81.916 159.943C81.3587 160.133 80.7254 160.228 80.016 160.228ZM87.1421 160V146.738H95.2361V148.144H88.7381V152.59H94.8561V153.996H88.7381V158.594H95.2361V160H87.1421ZM101.24 151.906L99.6442 148.961H99.5872V160H98.0292V146.738H99.8722L104.717 154.832L106.313 157.777H106.37V146.738H107.928V160H106.085L101.24 151.906ZM114.997 160.228C113.92 160.228 113.002 160.025 112.242 159.62C111.482 159.202 110.836 158.632 110.304 157.91L111.482 156.922C111.95 157.543 112.47 158.018 113.04 158.347C113.61 158.664 114.281 158.822 115.054 158.822C116.004 158.822 116.726 158.594 117.22 158.138C117.726 157.682 117.98 157.074 117.98 156.314C117.98 155.681 117.79 155.193 117.41 154.851C117.03 154.509 116.403 154.237 115.529 154.034L114.446 153.787C113.23 153.508 112.299 153.09 111.653 152.533C111.019 151.963 110.703 151.165 110.703 150.139C110.703 149.556 110.81 149.037 111.026 148.581C111.241 148.125 111.539 147.745 111.919 147.441C112.311 147.137 112.774 146.909 113.306 146.757C113.85 146.592 114.446 146.51 115.092 146.51C116.092 146.51 116.947 146.694 117.657 147.061C118.379 147.428 118.987 147.967 119.481 148.676L118.284 149.55C117.916 149.043 117.473 148.644 116.954 148.353C116.434 148.062 115.788 147.916 115.016 147.916C114.167 147.916 113.496 148.1 113.002 148.467C112.52 148.822 112.28 149.36 112.28 150.082C112.28 150.715 112.482 151.197 112.888 151.526C113.306 151.843 113.933 152.096 114.769 152.286L115.852 152.533C117.156 152.824 118.1 153.268 118.683 153.863C119.265 154.458 119.557 155.25 119.557 156.238C119.557 156.846 119.449 157.397 119.234 157.891C119.031 158.385 118.733 158.803 118.341 159.145C117.948 159.487 117.467 159.753 116.897 159.943C116.339 160.133 115.706 160.228 114.997 160.228ZM127.082 160.228C126.221 160.228 125.442 160.082 124.745 159.791C124.061 159.487 123.472 159.05 122.978 158.48C122.497 157.897 122.123 157.182 121.857 156.333C121.591 155.472 121.458 154.484 121.458 153.369C121.458 152.254 121.591 151.273 121.857 150.424C122.123 149.575 122.497 148.86 122.978 148.277C123.472 147.694 124.061 147.257 124.745 146.966C125.442 146.662 126.221 146.51 127.082 146.51C127.931 146.51 128.703 146.662 129.4 146.966C130.097 147.257 130.686 147.694 131.167 148.277C131.661 148.86 132.041 149.575 132.307 150.424C132.573 151.273 132.706 152.254 132.706 153.369C132.706 154.484 132.573 155.472 132.307 156.333C132.041 157.182 131.661 157.897 131.167 158.48C130.686 159.05 130.097 159.487 129.4 159.791C128.703 160.082 127.931 160.228 127.082 160.228ZM127.082 158.803C127.652 158.803 128.178 158.702 128.659 158.499C129.14 158.296 129.552 158.005 129.894 157.625C130.249 157.245 130.521 156.789 130.711 156.257C130.901 155.725 130.996 155.13 130.996 154.471V152.267C130.996 151.608 130.901 151.013 130.711 150.481C130.521 149.949 130.249 149.493 129.894 149.113C129.552 148.733 129.14 148.442 128.659 148.239C128.178 148.036 127.652 147.935 127.082 147.935C126.512 147.935 125.986 148.036 125.505 148.239C125.024 148.442 124.606 148.733 124.251 149.113C123.909 149.493 123.643 149.949 123.453 150.481C123.263 151.013 123.168 151.608 123.168 152.267V154.471C123.168 155.13 123.263 155.725 123.453 156.257C123.643 156.789 123.909 157.245 124.251 157.625C124.606 158.005 125.024 158.296 125.505 158.499C125.986 158.702 126.512 158.803 127.082 158.803ZM136.981 160H135.385V146.738H140.667C141.832 146.738 142.738 147.061 143.384 147.707C144.043 148.353 144.372 149.284 144.372 150.5C144.372 151.475 144.144 152.28 143.688 152.913C143.245 153.534 142.586 153.945 141.712 154.148L144.752 160H142.947L140.078 154.3H136.981V160ZM140.667 152.932C141.3 152.932 141.788 152.767 142.13 152.438C142.485 152.109 142.662 151.64 142.662 151.032V150.044C142.662 149.436 142.485 148.967 142.13 148.638C141.788 148.309 141.3 148.144 140.667 148.144H136.981V152.932H140.667Z" fill="#161615"/>
<path d="M13.363 160V160.2H13.563V160H13.363ZM11.767 160H11.567V160.2H11.767V160ZM11.767 146.738V146.538H11.567V146.738H11.767ZM19.766 147.707L19.6246 147.848L19.626 147.85L19.766 147.707ZM20.07 152.913L19.9077 152.796L19.9073 152.797L20.07 152.913ZM18.094 154.148L18.0488 153.953L17.7977 154.011L17.9165 154.24L18.094 154.148ZM21.134 160V160.2H21.4633L21.3115 159.908L21.134 160ZM19.329 160L19.1504 160.09L19.2058 160.2H19.329V160ZM16.46 154.3L16.6386 154.21L16.5832 154.1H16.46V154.3ZM13.363 154.3V154.1H13.163V154.3H13.363ZM18.512 152.438L18.3759 152.291L18.3733 152.294L18.512 152.438ZM18.512 148.638L18.3732 148.782L18.3759 148.785L18.512 148.638ZM13.363 148.144V147.944H13.163V148.144H13.363ZM13.363 152.932H13.163V153.132H13.363V152.932ZM13.363 159.8H11.767V160.2H13.363V159.8ZM11.967 160V146.738H11.567V160H11.967ZM11.767 146.938H17.049V146.538H11.767V146.938ZM17.049 146.938C18.1766 146.938 19.0257 147.25 19.6246 147.848L19.9074 147.566C19.2143 146.872 18.252 146.538 17.049 146.538V146.938ZM19.626 147.85C20.2352 148.447 20.554 149.32 20.554 150.5H20.954C20.954 149.248 20.6141 148.259 19.906 147.564L19.626 147.85ZM20.554 150.5C20.554 151.444 20.3337 152.205 19.9077 152.796L20.2323 153.03C20.7183 152.355 20.954 151.507 20.954 150.5H20.554ZM19.9073 152.797C19.4971 153.371 18.8842 153.759 18.0488 153.953L18.1392 154.343C19.0518 154.131 19.7562 153.696 20.2327 153.029L19.9073 152.797ZM17.9165 154.24L20.9565 160.092L21.3115 159.908L18.2715 154.056L17.9165 154.24ZM21.134 159.8H19.329V160.2H21.134V159.8ZM19.5076 159.91L16.6386 154.21L16.2814 154.39L19.1504 160.09L19.5076 159.91ZM16.46 154.1H13.363V154.5H16.46V154.1ZM13.163 154.3V160H13.563V154.3H13.163ZM17.049 153.132C17.7163 153.132 18.2604 152.958 18.6507 152.582L18.3733 152.294C18.0796 152.577 17.6483 152.732 17.049 152.732V153.132ZM18.6481 152.585C19.0535 152.208 19.244 151.68 19.244 151.032H18.844C18.844 151.6 18.6799 152.009 18.3759 152.291L18.6481 152.585ZM19.244 151.032V150.044H18.844V151.032H19.244ZM19.244 150.044C19.244 149.396 19.0535 148.868 18.6481 148.491L18.3759 148.785C18.6799 149.067 18.844 149.476 18.844 150.044H19.244ZM18.6507 148.494C18.2604 148.118 17.7163 147.944 17.049 147.944V148.344C17.6483 148.344 18.0796 148.499 18.3733 148.782L18.6507 148.494ZM17.049 147.944H13.363V148.344H17.049V147.944ZM13.163 148.144V152.932H13.563V148.144H13.163ZM13.363 153.132H17.049V152.732H13.363V153.132ZM32.0333 160L31.844 160.064L31.8901 160.2H32.0333V160ZM30.7033 156.086L30.8927 156.022L30.8466 155.886H30.7033V156.086ZM25.3453 156.086V155.886H25.2021L25.156 156.022L25.3453 156.086ZM24.0153 160V160.2H24.1586L24.2047 160.064L24.0153 160ZM22.4003 160L22.2115 159.934L22.1185 160.2H22.4003V160ZM27.0363 146.738V146.538H26.8944L26.8475 146.672L27.0363 146.738ZM29.0693 146.738L29.2581 146.672L29.2113 146.538H29.0693V146.738ZM33.7053 160V160.2H33.9871L33.8941 159.934L33.7053 160ZM28.0623 148.22L28.2513 148.154L28.2046 148.02H28.0623V148.22ZM27.9673 148.22V148.02H27.825L27.7784 148.154L27.9673 148.22ZM25.7253 154.68L25.5364 154.614L25.4442 154.88H25.7253V154.68ZM30.3043 154.68V154.88H30.5854L30.4933 154.614L30.3043 154.68ZM32.2227 159.936L30.8927 156.022L30.514 156.15L31.844 160.064L32.2227 159.936ZM30.7033 155.886H25.3453V156.286H30.7033V155.886ZM25.156 156.022L23.826 159.936L24.2047 160.064L25.5347 156.15L25.156 156.022ZM24.0153 159.8H22.4003V160.2H24.0153V159.8ZM22.5891 160.066L27.2251 146.804L26.8475 146.672L22.2115 159.934L22.5891 160.066ZM27.0363 146.938H29.0693V146.538H27.0363V146.938ZM28.8805 146.804L33.5165 160.066L33.8941 159.934L29.2581 146.672L28.8805 146.804ZM33.7053 159.8H32.0333V160.2H33.7053V159.8ZM28.0623 148.02H27.9673V148.42H28.0623V148.02ZM27.7784 148.154L25.5364 154.614L25.9143 154.746L28.1563 148.286L27.7784 148.154ZM25.7253 154.88H30.3043V154.48H25.7253V154.88ZM30.4933 154.614L28.2513 148.154L27.8734 148.286L30.1154 154.746L30.4933 154.614ZM35.7122 146.738V146.538H35.5122V146.738H35.7122ZM42.4002 147.156L42.4769 146.971L42.4769 146.971L42.4002 147.156ZM44.1102 148.41L43.9571 148.539L43.9603 148.542L44.1102 148.41ZM45.2122 150.481L45.0208 150.539L45.021 150.54L45.2122 150.481ZM45.2122 156.276L45.4034 156.335L45.4036 156.334L45.2122 156.276ZM44.1102 158.347L43.9588 158.216L43.9586 158.217L44.1102 158.347ZM35.7122 160H35.5122V160.2H35.7122V160ZM41.6592 158.328L41.7317 158.514L41.7361 158.513L41.6592 158.328ZM42.8372 157.511L42.6906 157.375L42.6906 157.375L42.8372 157.511ZM43.5972 156.219L43.4094 156.15L43.4084 156.153L43.5972 156.219ZM43.5972 150.538L43.4078 150.603L43.4099 150.608L43.5972 150.538ZM41.6592 148.429L41.5823 148.614L41.5867 148.615L41.6592 148.429ZM37.3082 148.144V147.944H37.1082V148.144H37.3082ZM37.3082 158.594H37.1082V158.794H37.3082V158.594ZM35.7122 146.938H40.1582V146.538H35.7122V146.938ZM40.1582 146.938C40.9587 146.938 41.6795 147.073 42.3235 147.341L42.4769 146.971C41.7782 146.681 41.0044 146.538 40.1582 146.538V146.938ZM42.3235 147.341C42.9652 147.607 43.509 148.006 43.9571 148.539L44.2633 148.281C43.774 147.699 43.1778 147.262 42.4769 146.971L42.3235 147.341ZM43.9603 148.542C44.4192 149.062 44.7741 149.725 45.0208 150.539L45.4036 150.423C45.1436 149.565 44.7639 148.848 44.2601 148.278L43.9603 148.542ZM45.021 150.54C45.2671 151.34 45.3922 152.282 45.3922 153.369H45.7922C45.7922 152.252 45.6639 151.269 45.4034 150.422L45.021 150.54ZM45.3922 153.369C45.3922 154.456 45.2672 155.405 45.0208 156.218L45.4036 156.334C45.6639 155.475 45.7922 154.486 45.7922 153.369H45.3922ZM45.021 156.217C44.7745 157.018 44.4193 157.683 43.9588 158.216L44.2616 158.478C44.7638 157.896 45.1432 157.18 45.4034 156.335L45.021 156.217ZM43.9586 158.217C43.5106 158.737 42.9663 159.13 42.3235 159.397L42.4769 159.767C43.1767 159.476 43.7725 159.046 44.2618 158.477L43.9586 158.217ZM42.3235 159.397C41.6795 159.665 40.9587 159.8 40.1582 159.8V160.2C41.0044 160.2 41.7782 160.057 42.4769 159.767L42.3235 159.397ZM40.1582 159.8H35.7122V160.2H40.1582V159.8ZM35.9122 160V146.738H35.5122V160H35.9122ZM40.1582 158.794C40.7249 158.794 41.2501 158.702 41.7317 158.514L41.5867 158.142C41.1563 158.309 40.6809 158.394 40.1582 158.394V158.794ZM41.7361 158.513C42.218 158.312 42.6345 158.023 42.9838 157.647L42.6906 157.375C42.3812 157.708 42.0124 157.964 41.5823 158.143L41.7361 158.513ZM42.9838 157.647C43.3338 157.27 43.6005 156.815 43.786 156.285L43.4084 156.153C43.2392 156.636 42.9993 157.043 42.6906 157.375L42.9838 157.647ZM43.785 156.288C43.9845 155.743 44.0822 155.13 44.0822 154.452H43.6822C43.6822 155.092 43.5899 155.657 43.4094 156.15L43.785 156.288ZM44.0822 154.452V152.286H43.6822V154.452H44.0822ZM44.0822 152.286C44.0822 151.608 43.9845 151.001 43.7845 150.468L43.4099 150.608C43.5899 151.088 43.6822 151.646 43.6822 152.286H44.0822ZM43.7865 150.473C43.6013 149.931 43.3346 149.469 42.9838 149.091L42.6906 149.363C42.9985 149.695 43.2384 150.106 43.4079 150.603L43.7865 150.473ZM42.9838 149.091C42.6336 148.714 42.2155 148.431 41.7317 148.243L41.5867 148.615C42.0149 148.782 42.3821 149.031 42.6906 149.363L42.9838 149.091ZM41.7361 148.244C41.2534 148.043 40.7266 147.944 40.1582 147.944V148.344C40.6792 148.344 41.153 148.435 41.5823 148.614L41.7361 148.244ZM40.1582 147.944H37.3082V148.344H40.1582V147.944ZM37.1082 148.144V158.594H37.5082V148.144H37.1082ZM37.3082 158.794H40.1582V158.394H37.3082V158.794ZM56.3496 160L56.1602 160.064L56.2063 160.2H56.3496V160ZM55.0196 156.086L55.209 156.022L55.1629 155.886H55.0196V156.086ZM49.6616 156.086V155.886H49.5183L49.4722 156.022L49.6616 156.086ZM48.3316 160V160.2H48.4749L48.521 160.064L48.3316 160ZM46.7166 160L46.5278 159.934L46.4348 160.2H46.7166V160ZM51.3526 146.738V146.538H51.2107L51.1638 146.672L51.3526 146.738ZM53.3856 146.738L53.5744 146.672L53.5276 146.538H53.3856V146.738ZM58.0216 160V160.2H58.3034L58.2104 159.934L58.0216 160ZM52.3786 148.22L52.5676 148.154L52.5209 148.02H52.3786V148.22ZM52.2836 148.22V148.02H52.1413L52.0947 148.154L52.2836 148.22ZM50.0416 154.68L49.8527 154.614L49.7605 154.88H50.0416V154.68ZM54.6206 154.68V154.88H54.9017L54.8096 154.614L54.6206 154.68ZM56.539 159.936L55.209 156.022L54.8302 156.15L56.1602 160.064L56.539 159.936ZM55.0196 155.886H49.6616V156.286H55.0196V155.886ZM49.4722 156.022L48.1422 159.936L48.521 160.064L49.851 156.15L49.4722 156.022ZM48.3316 159.8H46.7166V160.2H48.3316V159.8ZM46.9054 160.066L51.5414 146.804L51.1638 146.672L46.5278 159.934L46.9054 160.066ZM51.3526 146.938H53.3856V146.538H51.3526V146.938ZM53.1968 146.804L57.8328 160.066L58.2104 159.934L53.5744 146.672L53.1968 146.804ZM58.0216 159.8H56.3496V160.2H58.0216V159.8ZM52.3786 148.02H52.2836V148.42H52.3786V148.02ZM52.0947 148.154L49.8527 154.614L50.2306 154.746L52.4726 148.286L52.0947 148.154ZM50.0416 154.88H54.6206V154.48H50.0416V154.88ZM54.8096 154.614L52.5676 148.154L52.1897 148.286L54.4317 154.746L54.8096 154.614ZM61.6245 160V160.2H61.8245V160H61.6245ZM60.0285 160H59.8285V160.2H60.0285V160ZM60.0285 146.738V146.538H59.8285V146.738H60.0285ZM68.0275 147.707L67.8861 147.848L67.8874 147.85L68.0275 147.707ZM68.3315 152.913L68.1692 152.796L68.1687 152.797L68.3315 152.913ZM66.3555 154.148L66.3103 153.953L66.0592 154.011L66.178 154.24L66.3555 154.148ZM69.3955 160V160.2H69.7248L69.573 159.908L69.3955 160ZM67.5905 160L67.4118 160.09L67.4672 160.2H67.5905V160ZM64.7215 154.3L64.9001 154.21L64.8447 154.1H64.7215V154.3ZM61.6245 154.3V154.1H61.4245V154.3H61.6245ZM66.7735 152.438L66.6374 152.291L66.6348 152.294L66.7735 152.438ZM66.7735 148.638L66.6347 148.782L66.6374 148.785L66.7735 148.638ZM61.6245 148.144V147.944H61.4245V148.144H61.6245ZM61.6245 152.932H61.4245V153.132H61.6245V152.932ZM61.6245 159.8H60.0285V160.2H61.6245V159.8ZM60.2285 160V146.738H59.8285V160H60.2285ZM60.0285 146.938H65.3105V146.538H60.0285V146.938ZM65.3105 146.938C66.4381 146.938 67.2872 147.25 67.8861 147.848L68.1689 147.566C67.4758 146.872 66.5135 146.538 65.3105 146.538V146.938ZM67.8874 147.85C68.4967 148.447 68.8155 149.32 68.8155 150.5H69.2155C69.2155 149.248 68.8756 148.259 68.1675 147.564L67.8874 147.85ZM68.8155 150.5C68.8155 151.444 68.5951 152.205 68.1692 152.796L68.4938 153.03C68.9798 152.355 69.2155 151.507 69.2155 150.5H68.8155ZM68.1687 152.797C67.7586 153.371 67.1457 153.759 66.3103 153.953L66.4007 154.343C67.3133 154.131 68.0177 153.696 68.4942 153.029L68.1687 152.797ZM66.178 154.24L69.218 160.092L69.573 159.908L66.533 154.056L66.178 154.24ZM69.3955 159.8H67.5905V160.2H69.3955V159.8ZM67.7691 159.91L64.9001 154.21L64.5428 154.39L67.4118 160.09L67.7691 159.91ZM64.7215 154.1H61.6245V154.5H64.7215V154.1ZM61.4245 154.3V160H61.8245V154.3H61.4245ZM65.3105 153.132C65.9778 153.132 66.5219 152.958 66.9122 152.582L66.6348 152.294C66.3411 152.577 65.9098 152.732 65.3105 152.732V153.132ZM66.9096 152.585C67.3149 152.208 67.5055 151.68 67.5055 151.032H67.1055C67.1055 151.6 66.9414 152.009 66.6374 152.291L66.9096 152.585ZM67.5055 151.032V150.044H67.1055V151.032H67.5055ZM67.5055 150.044C67.5055 149.396 67.3149 148.868 66.9096 148.491L66.6374 148.785C66.9414 149.067 67.1055 149.476 67.1055 150.044H67.5055ZM66.9122 148.494C66.5219 148.118 65.9778 147.944 65.3105 147.944V148.344C65.9098 148.344 66.3411 148.499 66.6348 148.782L66.9122 148.494ZM65.3105 147.944H61.6245V148.344H65.3105V147.944ZM61.4245 148.144V152.932H61.8245V148.144H61.4245ZM61.6245 153.132H65.3105V152.732H61.6245V153.132ZM77.261 159.62L77.1646 159.795L77.1669 159.796L77.261 159.62ZM75.323 157.91L75.1945 157.757L75.0506 157.877L75.162 158.029L75.323 157.91ZM76.501 156.922L76.6606 156.801L76.5338 156.633L76.3725 156.769L76.501 156.922ZM78.059 158.347L77.959 158.52L77.9619 158.522L78.059 158.347ZM82.239 158.138L82.1052 157.989L82.1034 157.991L82.239 158.138ZM82.429 154.851L82.5628 154.702L82.5628 154.702L82.429 154.851ZM80.548 154.034L80.5932 153.839L80.5925 153.839L80.548 154.034ZM79.465 153.787L79.4204 153.982L79.4206 153.982L79.465 153.787ZM76.672 152.533L76.5382 152.682L76.5414 152.684L76.672 152.533ZM76.045 148.581L76.2259 148.666L76.2259 148.666L76.045 148.581ZM76.938 147.441L76.8156 147.283L76.8131 147.285L76.938 147.441ZM78.325 146.757L78.38 146.949L78.3829 146.948L78.325 146.757ZM82.676 147.061L82.5841 147.239L82.5853 147.239L82.676 147.061ZM84.5 148.676L84.618 148.838L84.7759 148.722L84.6642 148.562L84.5 148.676ZM83.303 149.55L83.1411 149.667L83.2589 149.83L83.421 149.712L83.303 149.55ZM78.021 148.467L78.1397 148.628L78.1404 148.627L78.021 148.467ZM77.907 151.526L77.7808 151.681L77.7863 151.685L77.907 151.526ZM79.788 152.286L79.8325 152.091L79.8324 152.091L79.788 152.286ZM80.871 152.533L80.8266 152.728L80.8275 152.728L80.871 152.533ZM83.702 153.863L83.5591 154.003L83.5591 154.003L83.702 153.863ZM84.253 157.891L84.0697 157.811L84.068 157.815L84.253 157.891ZM83.36 159.145L83.4914 159.296L83.4914 159.296L83.36 159.145ZM81.916 159.943L81.8528 159.753L81.8515 159.754L81.916 159.943ZM80.016 160.028C78.9641 160.028 78.0798 159.83 77.3552 159.444L77.1669 159.796C77.9622 160.221 78.9146 160.428 80.016 160.428V160.028ZM77.3574 159.445C76.6237 159.041 75.9995 158.491 75.4841 157.791L75.162 158.029C75.7106 158.773 76.3784 159.363 77.1647 159.795L77.3574 159.445ZM75.4516 158.063L76.6296 157.075L76.3725 156.769L75.1945 157.757L75.4516 158.063ZM76.3414 157.043C76.8233 157.681 77.362 158.175 77.959 158.52L78.1591 158.174C77.6161 157.86 77.1161 157.405 76.6606 156.801L76.3414 157.043ZM77.9619 158.522C78.5667 158.858 79.2727 159.022 80.073 159.022V158.622C79.3281 158.622 78.6914 158.47 78.1562 158.172L77.9619 158.522ZM80.073 159.022C81.0526 159.022 81.8309 158.787 82.3747 158.285L82.1034 157.991C81.6592 158.401 80.9935 158.622 80.073 158.622V159.022ZM82.3728 158.287C82.9267 157.788 83.199 157.123 83.199 156.314H82.799C82.799 157.025 82.5647 157.576 82.1052 157.989L82.3728 158.287ZM83.199 156.314C83.199 155.639 82.9947 155.091 82.5628 154.702L82.2952 155C82.6234 155.295 82.799 155.723 82.799 156.314H83.199ZM82.5628 154.702C82.1452 154.326 81.4787 154.044 80.5932 153.839L80.5029 154.229C81.3654 154.429 81.9529 154.692 82.2952 155L82.5628 154.702ZM80.5925 153.839L79.5095 153.592L79.4206 153.982L80.5036 154.229L80.5925 153.839ZM79.5097 153.592C78.3119 153.318 77.4152 152.91 76.8027 152.382L76.5414 152.684C77.2208 153.271 78.1862 153.699 79.4204 153.982L79.5097 153.592ZM76.8058 152.384C76.2232 151.86 75.922 151.121 75.922 150.139H75.522C75.522 151.209 75.8542 152.066 76.5382 152.682L76.8058 152.384ZM75.922 150.139C75.922 149.581 76.025 149.092 76.2259 148.666L75.8642 148.496C75.6344 148.982 75.522 149.531 75.522 150.139H75.922ZM76.2259 148.666C76.4287 148.237 76.7076 147.881 77.063 147.597L76.8131 147.285C76.4084 147.609 76.092 148.013 75.8642 148.496L76.2259 148.666ZM77.0605 147.599C77.4308 147.312 77.8697 147.095 78.38 146.949L78.2701 146.565C77.7164 146.723 77.2306 146.962 76.8156 147.283L77.0605 147.599ZM78.3829 146.948C78.9065 146.79 79.482 146.71 80.111 146.71V146.31C79.448 146.31 78.8329 146.395 78.2672 146.566L78.3829 146.948ZM80.111 146.71C81.0876 146.71 81.9094 146.889 82.5841 147.239L82.768 146.883C82.024 146.498 81.1358 146.31 80.111 146.31V146.71ZM82.5853 147.239C83.276 147.591 83.8595 148.106 84.3359 148.79L84.6642 148.562C84.1526 147.827 83.5201 147.266 82.7667 146.883L82.5853 147.239ZM84.3821 148.514L83.1851 149.388L83.421 149.712L84.618 148.838L84.3821 148.514ZM83.465 149.433C83.0815 148.904 82.6167 148.485 82.0709 148.179L81.8752 148.527C82.368 148.804 82.7899 149.183 83.1411 149.667L83.465 149.433ZM82.0709 148.179C81.5141 147.866 80.832 147.716 80.035 147.716V148.116C80.7834 148.116 81.3933 148.257 81.8752 148.527L82.0709 148.179ZM80.035 147.716C79.1593 147.716 78.4411 147.905 77.9017 148.307L78.1404 148.627C78.589 148.294 79.2134 148.116 80.035 148.116V147.716ZM77.9024 148.306C77.359 148.706 77.099 149.311 77.099 150.082H77.499C77.499 149.409 77.7204 148.937 78.1397 148.628L77.9024 148.306ZM77.099 150.082C77.099 150.761 77.3189 151.306 77.7809 151.681L78.0332 151.371C77.6845 151.088 77.499 150.669 77.499 150.082H77.099ZM77.7863 151.685C78.2369 152.027 78.8955 152.288 79.7437 152.481L79.8324 152.091C79.0086 151.904 78.4132 151.659 78.0278 151.367L77.7863 151.685ZM79.7436 152.481L80.8266 152.728L80.9155 152.338L79.8325 152.091L79.7436 152.481ZM80.8275 152.728C82.1152 153.016 83.0153 153.447 83.5591 154.003L83.845 153.723C83.2234 153.088 82.2363 152.633 80.9146 152.338L80.8275 152.728ZM83.5591 154.003C84.0985 154.554 84.376 155.292 84.376 156.238H84.776C84.776 155.208 84.4709 154.363 83.845 153.723L83.5591 154.003ZM84.376 156.238C84.376 156.822 84.2727 157.345 84.0697 157.811L84.4364 157.971C84.664 157.449 84.776 156.87 84.776 156.238H84.376ZM84.068 157.815C83.8768 158.281 83.5973 158.673 83.2287 158.994L83.4914 159.296C83.9082 158.933 84.2239 158.489 84.4381 157.967L84.068 157.815ZM83.2287 158.994C82.8588 159.316 82.4016 159.57 81.8528 159.753L81.9793 160.133C82.5705 159.936 83.076 159.658 83.4914 159.296L83.2287 158.994ZM81.8515 159.754C81.3187 159.935 80.7078 160.028 80.016 160.028V160.428C80.743 160.428 81.3987 160.331 81.9806 160.132L81.8515 159.754ZM87.1421 160H86.9421V160.2H87.1421V160ZM87.1421 146.738V146.538H86.9421V146.738H87.1421ZM95.2361 146.738H95.4361V146.538H95.2361V146.738ZM95.2361 148.144V148.344H95.4361V148.144H95.2361ZM88.7381 148.144V147.944H88.5381V148.144H88.7381ZM88.7381 152.59H88.5381V152.79H88.7381V152.59ZM94.8561 152.59H95.0561V152.39H94.8561V152.59ZM94.8561 153.996V154.196H95.0561V153.996H94.8561ZM88.7381 153.996V153.796H88.5381V153.996H88.7381ZM88.7381 158.594H88.5381V158.794H88.7381V158.594ZM95.2361 158.594H95.4361V158.394H95.2361V158.594ZM95.2361 160V160.2H95.4361V160H95.2361ZM87.3421 160V146.738H86.9421V160H87.3421ZM87.1421 146.938H95.2361V146.538H87.1421V146.938ZM95.0361 146.738V148.144H95.4361V146.738H95.0361ZM95.2361 147.944H88.7381V148.344H95.2361V147.944ZM88.5381 148.144V152.59H88.9381V148.144H88.5381ZM88.7381 152.79H94.8561V152.39H88.7381V152.79ZM94.6561 152.59V153.996H95.0561V152.59H94.6561ZM94.8561 153.796H88.7381V154.196H94.8561V153.796ZM88.5381 153.996V158.594H88.9381V153.996H88.5381ZM88.7381 158.794H95.2361V158.394H88.7381V158.794ZM95.0361 158.594V160H95.4361V158.594H95.0361ZM95.2361 159.8H87.1421V160.2H95.2361V159.8ZM101.24 151.906L101.064 152.001L101.069 152.009L101.24 151.906ZM99.6442 148.961L99.8201 148.866L99.7633 148.761H99.6442V148.961ZM99.5872 148.961V148.761H99.3872V148.961H99.5872ZM99.5872 160V160.2H99.7872V160H99.5872ZM98.0292 160H97.8292V160.2H98.0292V160ZM98.0292 146.738V146.538H97.8292V146.738H98.0292ZM99.8722 146.738L100.044 146.635L99.9856 146.538H99.8722V146.738ZM104.717 154.832L104.893 154.737L104.889 154.729L104.717 154.832ZM106.313 157.777L106.137 157.872L106.194 157.977H106.313V157.777ZM106.37 157.777V157.977H106.57V157.777H106.37ZM106.37 146.738V146.538H106.17V146.738H106.37ZM107.928 146.738H108.128V146.538H107.928V146.738ZM107.928 160V160.2H108.128V160H107.928ZM106.085 160L105.914 160.103L105.972 160.2H106.085V160ZM101.416 151.811L99.8201 148.866L99.4684 149.056L101.064 152.001L101.416 151.811ZM99.6442 148.761H99.5872V149.161H99.6442V148.761ZM99.3872 148.961V160H99.7872V148.961H99.3872ZM99.5872 159.8H98.0292V160.2H99.5872V159.8ZM98.2292 160V146.738H97.8292V160H98.2292ZM98.0292 146.938H99.8722V146.538H98.0292V146.938ZM99.7006 146.841L104.546 154.935L104.889 154.729L100.044 146.635L99.7006 146.841ZM104.541 154.927L106.137 157.872L106.489 157.682L104.893 154.737L104.541 154.927ZM106.313 157.977H106.37V157.577H106.313V157.977ZM106.57 157.777V146.738H106.17V157.777H106.57ZM106.37 146.938H107.928V146.538H106.37V146.938ZM107.728 146.738V160H108.128V146.738H107.728ZM107.928 159.8H106.085V160.2H107.928V159.8ZM106.257 159.897L101.412 151.803L101.069 152.009L105.914 160.103L106.257 159.897ZM112.242 159.62L112.145 159.795L112.148 159.796L112.242 159.62ZM110.304 157.91L110.175 157.757L110.031 157.877L110.143 158.029L110.304 157.91ZM111.482 156.922L111.641 156.801L111.515 156.633L111.353 156.769L111.482 156.922ZM113.04 158.347L112.94 158.52L112.943 158.522L113.04 158.347ZM117.22 158.138L117.086 157.989L117.084 157.991L117.22 158.138ZM117.41 154.851L117.544 154.702L117.544 154.702L117.41 154.851ZM115.529 154.034L115.574 153.839L115.573 153.839L115.529 154.034ZM114.446 153.787L114.401 153.982L114.401 153.982L114.446 153.787ZM111.653 152.533L111.519 152.682L111.522 152.684L111.653 152.533ZM111.026 148.581L111.207 148.666L111.207 148.666L111.026 148.581ZM111.919 147.441L111.796 147.283L111.794 147.285L111.919 147.441ZM113.306 146.757L113.361 146.949L113.364 146.948L113.306 146.757ZM117.657 147.061L117.565 147.239L117.566 147.239L117.657 147.061ZM119.481 148.676L119.599 148.838L119.757 148.722L119.645 148.562L119.481 148.676ZM118.284 149.55L118.122 149.667L118.24 149.83L118.402 149.712L118.284 149.55ZM113.002 148.467L113.12 148.628L113.121 148.627L113.002 148.467ZM112.888 151.526L112.762 151.681L112.767 151.685L112.888 151.526ZM114.769 152.286L114.813 152.091L114.813 152.091L114.769 152.286ZM115.852 152.533L115.807 152.728L115.808 152.728L115.852 152.533ZM118.683 153.863L118.54 154.003L118.54 154.003L118.683 153.863ZM119.234 157.891L119.05 157.811L119.049 157.815L119.234 157.891ZM118.341 159.145L118.472 159.296L118.472 159.296L118.341 159.145ZM116.897 159.943L116.834 159.753L116.832 159.754L116.897 159.943ZM114.997 160.028C113.945 160.028 113.061 159.83 112.336 159.444L112.148 159.796C112.943 160.221 113.895 160.428 114.997 160.428V160.028ZM112.338 159.445C111.604 159.041 110.98 158.491 110.465 157.791L110.143 158.029C110.691 158.773 111.359 159.363 112.145 159.795L112.338 159.445ZM110.432 158.063L111.61 157.075L111.353 156.769L110.175 157.757L110.432 158.063ZM111.322 157.043C111.804 157.681 112.343 158.175 112.94 158.52L113.14 158.174C112.597 157.86 112.097 157.405 111.641 156.801L111.322 157.043ZM112.943 158.522C113.547 158.858 114.253 159.022 115.054 159.022V158.622C114.309 158.622 113.672 158.47 113.137 158.172L112.943 158.522ZM115.054 159.022C116.033 159.022 116.812 158.787 117.355 158.285L117.084 157.991C116.64 158.401 115.974 158.622 115.054 158.622V159.022ZM117.354 158.287C117.908 157.788 118.18 157.123 118.18 156.314H117.78C117.78 157.025 117.545 157.576 117.086 157.989L117.354 158.287ZM118.18 156.314C118.18 155.639 117.976 155.091 117.544 154.702L117.276 155C117.604 155.295 117.78 155.723 117.78 156.314H118.18ZM117.544 154.702C117.126 154.326 116.459 154.044 115.574 153.839L115.484 154.229C116.346 154.429 116.934 154.692 117.276 155L117.544 154.702ZM115.573 153.839L114.49 153.592L114.401 153.982L115.484 154.229L115.573 153.839ZM114.49 153.592C113.293 153.318 112.396 152.91 111.783 152.382L111.522 152.684C112.202 153.271 113.167 153.699 114.401 153.982L114.49 153.592ZM111.787 152.384C111.204 151.86 110.903 151.121 110.903 150.139H110.503C110.503 151.209 110.835 152.066 111.519 152.682L111.787 152.384ZM110.903 150.139C110.903 149.581 111.006 149.092 111.207 148.666L110.845 148.496C110.615 148.982 110.503 149.531 110.503 150.139H110.903ZM111.207 148.666C111.409 148.237 111.688 147.881 112.044 147.597L111.794 147.285C111.389 147.609 111.073 148.013 110.845 148.496L111.207 148.666ZM112.041 147.599C112.412 147.312 112.85 147.095 113.361 146.949L113.251 146.565C112.697 146.723 112.211 146.962 111.796 147.283L112.041 147.599ZM113.364 146.948C113.887 146.79 114.463 146.71 115.092 146.71V146.31C114.429 146.31 113.814 146.395 113.248 146.566L113.364 146.948ZM115.092 146.71C116.068 146.71 116.89 146.889 117.565 147.239L117.749 146.883C117.005 146.498 116.117 146.31 115.092 146.31V146.71ZM117.566 147.239C118.257 147.591 118.84 148.106 119.317 148.79L119.645 148.562C119.133 147.827 118.501 147.266 117.748 146.883L117.566 147.239ZM119.363 148.514L118.166 149.388L118.402 149.712L119.599 148.838L119.363 148.514ZM118.446 149.433C118.062 148.904 117.598 148.485 117.052 148.179L116.856 148.527C117.349 148.804 117.771 149.183 118.122 149.667L118.446 149.433ZM117.052 148.179C116.495 147.866 115.813 147.716 115.016 147.716V148.116C115.764 148.116 116.374 148.257 116.856 148.527L117.052 148.179ZM115.016 147.716C114.14 147.716 113.422 147.905 112.882 148.307L113.121 148.627C113.57 148.294 114.194 148.116 115.016 148.116V147.716ZM112.883 148.306C112.34 148.706 112.08 149.311 112.08 150.082H112.48C112.48 149.409 112.701 148.937 113.12 148.628L112.883 148.306ZM112.08 150.082C112.08 150.761 112.3 151.306 112.762 151.681L113.014 151.371C112.665 151.088 112.48 150.669 112.48 150.082H112.08ZM112.767 151.685C113.218 152.027 113.876 152.288 114.724 152.481L114.813 152.091C113.989 151.904 113.394 151.659 113.009 151.367L112.767 151.685ZM114.724 152.481L115.807 152.728L115.896 152.338L114.813 152.091L114.724 152.481ZM115.808 152.728C117.096 153.016 117.996 153.447 118.54 154.003L118.826 153.723C118.204 153.088 117.217 152.633 115.895 152.338L115.808 152.728ZM118.54 154.003C119.079 154.554 119.357 155.292 119.357 156.238H119.757C119.757 155.208 119.452 154.363 118.826 153.723L118.54 154.003ZM119.357 156.238C119.357 156.822 119.254 157.345 119.05 157.811L119.417 157.971C119.645 157.449 119.757 156.87 119.757 156.238H119.357ZM119.049 157.815C118.858 158.281 118.578 158.673 118.209 158.994L118.472 159.296C118.889 158.933 119.205 158.489 119.419 157.967L119.049 157.815ZM118.209 158.994C117.84 159.316 117.382 159.57 116.834 159.753L116.96 160.133C117.551 159.936 118.057 159.658 118.472 159.296L118.209 158.994ZM116.832 159.754C116.299 159.935 115.689 160.028 114.997 160.028V160.428C115.724 160.428 116.379 160.331 116.961 160.132L116.832 159.754ZM124.745 159.791L124.664 159.974L124.668 159.976L124.745 159.791ZM122.978 158.48L122.824 158.607L122.827 158.611L122.978 158.48ZM121.857 156.333L121.666 156.392L121.666 156.393L121.857 156.333ZM121.857 150.424L122.048 150.484L122.048 150.484L121.857 150.424ZM122.978 148.277L122.825 148.148L122.824 148.15L122.978 148.277ZM124.745 146.966L124.823 147.15L124.825 147.149L124.745 146.966ZM129.4 146.966L129.32 147.149L129.323 147.151L129.4 146.966ZM131.167 148.277L131.013 148.404L131.014 148.406L131.167 148.277ZM132.307 150.424L132.116 150.484L132.116 150.484L132.307 150.424ZM132.307 156.333L132.498 156.393L132.498 156.392L132.307 156.333ZM131.167 158.48L131.014 158.351L131.014 158.351L131.167 158.48ZM129.4 159.791L129.477 159.976L129.48 159.974L129.4 159.791ZM128.659 158.499L128.581 158.315L128.581 158.315L128.659 158.499ZM129.894 157.625L129.748 157.489L129.745 157.491L129.894 157.625ZM130.711 156.257L130.523 156.19L130.523 156.19L130.711 156.257ZM130.711 150.481L130.899 150.414L130.899 150.414L130.711 150.481ZM129.894 149.113L129.745 149.247L129.748 149.249L129.894 149.113ZM128.659 148.239L128.581 148.423L128.581 148.423L128.659 148.239ZM125.505 148.239L125.582 148.423L125.582 148.423L125.505 148.239ZM124.251 149.113L124.105 148.977L124.102 148.979L124.251 149.113ZM123.453 150.481L123.265 150.414L123.265 150.414L123.453 150.481ZM123.453 156.257L123.641 156.19L123.641 156.19L123.453 156.257ZM124.251 157.625L124.102 157.759L124.105 157.761L124.251 157.625ZM125.505 158.499L125.582 158.315L125.582 158.315L125.505 158.499ZM127.082 160.028C126.243 160.028 125.491 159.886 124.822 159.606L124.668 159.976C125.392 160.278 126.198 160.428 127.082 160.428V160.028ZM124.826 159.608C124.169 159.316 123.604 158.897 123.129 158.349L122.827 158.611C123.34 159.203 123.953 159.658 124.664 159.974L124.826 159.608ZM123.132 158.353C122.67 157.793 122.307 157.101 122.048 156.273L121.666 156.393C121.938 157.262 122.323 158.002 122.824 158.607L123.132 158.353ZM122.048 156.274C121.789 155.436 121.658 154.468 121.658 153.369H121.258C121.258 154.499 121.393 155.508 121.666 156.392L122.048 156.274ZM121.658 153.369C121.658 152.27 121.789 151.309 122.048 150.484L121.666 150.364C121.393 151.236 121.258 152.239 121.258 153.369H121.658ZM122.048 150.484C122.307 149.656 122.67 148.964 123.132 148.404L122.824 148.15C122.323 148.755 121.938 149.495 121.666 150.364L122.048 150.484ZM123.13 148.406C123.605 147.847 124.169 147.429 124.823 147.15L124.666 146.782C123.953 147.086 123.339 147.542 122.825 148.148L123.13 148.406ZM124.825 147.149C125.493 146.858 126.244 146.71 127.082 146.71V146.31C126.197 146.31 125.39 146.466 124.665 146.783L124.825 147.149ZM127.082 146.71C127.906 146.71 128.651 146.858 129.32 147.149L129.48 146.783C128.755 146.466 127.955 146.31 127.082 146.31V146.71ZM129.323 147.151C129.989 147.429 130.552 147.847 131.013 148.404L131.321 148.15C130.819 147.542 130.204 147.085 129.477 146.781L129.323 147.151ZM131.014 148.406C131.488 148.966 131.857 149.657 132.116 150.484L132.498 150.364C132.225 149.494 131.833 148.754 131.319 148.148L131.014 148.406ZM132.116 150.484C132.375 151.309 132.506 152.27 132.506 153.369H132.906C132.906 152.239 132.771 151.236 132.498 150.364L132.116 150.484ZM132.506 153.369C132.506 154.468 132.375 155.436 132.116 156.274L132.498 156.392C132.771 155.508 132.906 154.499 132.906 153.369H132.506ZM132.116 156.273C131.857 157.1 131.488 157.791 131.014 158.351L131.319 158.609C131.833 158.003 132.225 157.263 132.498 156.393L132.116 156.273ZM131.014 158.351C130.553 158.897 129.989 159.316 129.32 159.608L129.48 159.974C130.204 159.658 130.818 159.203 131.32 158.609L131.014 158.351ZM129.323 159.606C128.653 159.886 127.907 160.028 127.082 160.028V160.428C127.954 160.428 128.753 160.278 129.477 159.976L129.323 159.606ZM127.082 159.003C127.676 159.003 128.228 158.897 128.736 158.683L128.581 158.315C128.127 158.506 127.628 158.603 127.082 158.603V159.003ZM128.736 158.683C129.244 158.469 129.68 158.161 130.043 157.759L129.745 157.491C129.423 157.849 129.036 158.123 128.581 158.315L128.736 158.683ZM130.04 157.761C130.415 157.36 130.701 156.88 130.899 156.324L130.523 156.19C130.341 156.698 130.082 157.13 129.748 157.489L130.04 157.761ZM130.899 156.324C131.098 155.767 131.196 155.149 131.196 154.471H130.796C130.796 155.11 130.704 155.683 130.523 156.19L130.899 156.324ZM131.196 154.471V152.267H130.796V154.471H131.196ZM131.196 152.267C131.196 151.589 131.098 150.971 130.899 150.414L130.523 150.548C130.704 151.055 130.796 151.628 130.796 152.267H131.196ZM130.899 150.414C130.701 149.858 130.415 149.378 130.04 148.977L129.748 149.249C130.082 149.608 130.341 150.04 130.523 150.548L130.899 150.414ZM130.043 148.979C129.68 148.577 129.244 148.268 128.736 148.055L128.581 148.423C129.036 148.615 129.423 148.889 129.745 149.247L130.043 148.979ZM128.736 148.055C128.228 147.841 127.676 147.735 127.082 147.735V148.135C127.628 148.135 128.127 148.232 128.581 148.423L128.736 148.055ZM127.082 147.735C126.488 147.735 125.935 147.841 125.427 148.055L125.582 148.423C126.037 148.232 126.536 148.135 127.082 148.135V147.735ZM125.427 148.055C124.92 148.268 124.479 148.576 124.105 148.977L124.397 149.249C124.732 148.89 125.127 148.615 125.582 148.423L125.427 148.055ZM124.102 148.979C123.741 149.381 123.462 149.86 123.265 150.414L123.641 150.548C123.823 150.038 124.077 149.605 124.4 149.247L124.102 148.979ZM123.265 150.414C123.066 150.971 122.968 151.589 122.968 152.267H123.368C123.368 151.628 123.46 151.055 123.641 150.548L123.265 150.414ZM122.968 152.267V154.471H123.368V152.267H122.968ZM122.968 154.471C122.968 155.149 123.066 155.767 123.265 156.324L123.641 156.19C123.46 155.683 123.368 155.11 123.368 154.471H122.968ZM123.265 156.324C123.462 156.878 123.741 157.357 124.102 157.759L124.4 157.491C124.077 157.133 123.823 156.7 123.641 156.19L123.265 156.324ZM124.105 157.761C124.479 158.162 124.92 158.47 125.427 158.683L125.582 158.315C125.127 158.123 124.732 157.848 124.397 157.489L124.105 157.761ZM125.427 158.683C125.935 158.897 126.488 159.003 127.082 159.003V158.603C126.536 158.603 126.037 158.506 125.582 158.315L125.427 158.683ZM136.981 160V160.2H137.181V160H136.981ZM135.385 160H135.185V160.2H135.385V160ZM135.385 146.738V146.538H135.185V146.738H135.385ZM143.384 147.707L143.243 147.848L143.244 147.85L143.384 147.707ZM143.688 152.913L143.526 152.796L143.525 152.797L143.688 152.913ZM141.712 154.148L141.667 153.953L141.416 154.011L141.535 154.24L141.712 154.148ZM144.752 160V160.2H145.081L144.929 159.908L144.752 160ZM142.947 160L142.768 160.09L142.824 160.2H142.947V160ZM140.078 154.3L140.257 154.21L140.201 154.1H140.078V154.3ZM136.981 154.3V154.1H136.781V154.3H136.981ZM142.13 152.438L141.994 152.291L141.991 152.294L142.13 152.438ZM142.13 148.638L141.991 148.782L141.994 148.785L142.13 148.638ZM136.981 148.144V147.944H136.781V148.144H136.981ZM136.981 152.932H136.781V153.132H136.981V152.932ZM136.981 159.8H135.385V160.2H136.981V159.8ZM135.585 160V146.738H135.185V160H135.585ZM135.385 146.938H140.667V146.538H135.385V146.938ZM140.667 146.938C141.795 146.938 142.644 147.25 143.243 147.848L143.525 147.566C142.832 146.872 141.87 146.538 140.667 146.538V146.938ZM143.244 147.85C143.853 148.447 144.172 149.32 144.172 150.5H144.572C144.572 149.248 144.232 148.259 143.524 147.564L143.244 147.85ZM144.172 150.5C144.172 151.444 143.952 152.205 143.526 152.796L143.85 153.03C144.336 152.355 144.572 151.507 144.572 150.5H144.172ZM143.525 152.797C143.115 153.371 142.502 153.759 141.667 153.953L141.757 154.343C142.67 154.131 143.374 153.696 143.851 153.029L143.525 152.797ZM141.535 154.24L144.575 160.092L144.929 159.908L141.889 154.056L141.535 154.24ZM144.752 159.8H142.947V160.2H144.752V159.8ZM143.126 159.91L140.257 154.21L139.899 154.39L142.768 160.09L143.126 159.91ZM140.078 154.1H136.981V154.5H140.078V154.1ZM136.781 154.3V160H137.181V154.3H136.781ZM140.667 153.132C141.334 153.132 141.878 152.958 142.269 152.582L141.991 152.294C141.698 152.577 141.266 152.732 140.667 152.732V153.132ZM142.266 152.585C142.671 152.208 142.862 151.68 142.862 151.032H142.462C142.462 151.6 142.298 152.009 141.994 152.291L142.266 152.585ZM142.862 151.032V150.044H142.462V151.032H142.862ZM142.862 150.044C142.862 149.396 142.671 148.868 142.266 148.491L141.994 148.785C142.298 149.067 142.462 149.476 142.462 150.044H142.862ZM142.269 148.494C141.878 148.118 141.334 147.944 140.667 147.944V148.344C141.266 148.344 141.698 148.499 141.991 148.782L142.269 148.494ZM140.667 147.944H136.981V148.344H140.667V147.944ZM136.781 148.144V152.932H137.181V148.144H136.781ZM136.981 153.132H140.667V152.732H136.981V153.132Z" fill="#161615"/>
</g>
<defs>
<clipPath id="clip0">
<rect width="155.5" height="172" fill="white"/>
</clipPath>
</defs>
</svg>
