<?xml version="1.0" encoding="utf-8"?>
<!-- Generator: Adobe Illustrator 23.1.1, SVG Export Plug-In . SVG Version: 6.00 Build 0)  -->
<svg version="1.1" id="Livello_1" xmlns="http://www.w3.org/2000/svg" xmlns:xlink="http://www.w3.org/1999/xlink" x="0px" y="0px"
	 viewBox="0 0 103 51" style="enable-background:new 0 0 103 51;" xml:space="preserve">
<style type="text/css">
	.st0{fill:#2A4B91;}
	.st1{fill:#B1B1B0;}
	.st2{fill-rule:evenodd;clip-rule:evenodd;fill:#B1B1B0;}
	.st3{fill:#2A4B91;stroke:#2A4B91;stroke-width:5.040421e-02;stroke-miterlimit:3.86;}
	.st4{fill-rule:evenodd;clip-rule:evenodd;fill:#FFFFFF;}
	.st5{fill:#FFFFFF;}
	.st6{fill:#222221;}
</style>
<g transform="translate(0 0.015)">
	<g id="Ebene_1">
		<path id="Path_1043" class="st0" d="M61.3,19h32.9v1.6H61.3V19z"/>
		<path id="Path_1044" class="st1" d="M61.3,31.2h32.9V32H61.3V31.2z"/>
		<path id="Path_1045" class="st1" d="M52.5,23.4h7.4v1h-7.4V23.4z"/>
		<path id="Path_1046" class="st1" d="M95.6,23.4h7.3v1h-7.3V23.4z"/>
		<path id="Path_1047" class="st1" d="M62.7,29.2l0-7.5h2v7.5H62.7z"/>
		<path id="Path_1048" class="st1" d="M74.3,29.2v-7.5H76l3.1,4.5v-4.5h1.6v7.5h-1.1L76,24.7l0,4.6H74.3z"/>
		<path id="Path_1049" class="st2" d="M87.5,27.2v1.3c-0.7,0.5-1.6,0.8-2.5,0.7c-1,0.1-2-0.3-2.8-0.9c-0.4-0.5-0.7-1.2-0.7-1.9
			c0-1.6,1.4-3,3-3c1.6,0,3,1.3,3,2.9c0,0.1,0,0.2,0,0.3h-4.2c0,0.4,0,1.6,1.9,1.6C86.1,28.2,86.9,27.9,87.5,27.2L87.5,27.2z
			 M85.9,25.6c-0.1-0.6-0.6-1.1-1.2-1.1c-0.6,0-1.1,0.5-1.2,1.1L85.9,25.6L85.9,25.6z"/>
		<path id="Path_1050" class="st1" d="M92.3,23.5v1.2h-2.1v2.9c0,0.1-0.1,0.4,1.1,0.4c0.7,0,0.7-0.1,0.9-0.3V29
			c-0.6,0.2-1.2,0.3-1.9,0.3c-0.9-0.1-1.7-0.7-2.1-1.6v-3h-0.8v-0.4c0,0,0.7-0.8,1.3-1.5c0.4-0.5,1-1.2,1.1-1.2c0,0,0.2-0.1,0.2,0.1
			v1.8H92.3z"/>
		<path id="Path_1051" class="st0" d="M67.2,27.9l-0.5-0.4l-0.5,0.4l0.2-0.6l-0.5-0.4h0.6l0.2-0.6l0.2,0.6h0.6L67,27.3L67.2,27.9
			L67.2,27.9z"/>
		<path id="Path_1052" class="st0" d="M66.8,26.2l-0.5-0.4l-0.5,0.4l0.2-0.6l-0.5-0.4h0.6l0.2-0.6l0.2,0.6h0.6l-0.5,0.4L66.8,26.2
			L66.8,26.2z"/>
		<path id="Path_1053" class="st0" d="M67.2,24.5l-0.5-0.4l-0.5,0.4l0.2-0.6l-0.5-0.4h0.6l0.2-0.6l0.2,0.6h0.6L67,23.9L67.2,24.5
			L67.2,24.5z"/>
		<path id="Path_1054" class="st0" d="M68.4,23.1l-0.5-0.4l-0.5,0.4l0.2-0.6l-0.5-0.4h0.6l0.2-0.6l0.2,0.6h0.6l-0.5,0.4L68.4,23.1
			L68.4,23.1z"/>
		<path id="Path_1055" class="st0" d="M70.2,22.8l-0.5-0.4l-0.5,0.4l0.2-0.6l-0.5-0.4h0.6l0.2-0.6l0.2,0.6h0.6L70,22.2L70.2,22.8
			L70.2,22.8z"/>
		<path id="Path_1056" class="st0" d="M68.5,29.2l-0.5-0.4l-0.5,0.4l0.2-0.6l-0.5-0.4h0.6l0.2-0.6l0.2,0.6h0.6l-0.5,0.4L68.5,29.2
			L68.5,29.2z"/>
		<path id="Path_1057" class="st0" d="M70.2,29.8l-0.5-0.4l-0.5,0.4l0.2-0.6l-0.5-0.4h0.6l0.2-0.6l0.2,0.6h0.6L70,29.2L70.2,29.8
			L70.2,29.8z"/>
		<path id="Path_1058" class="st0" d="M72.2,27.9l0.5-0.4l0.5,0.4L73,27.3l0.5-0.4h-0.6l-0.2-0.6l-0.2,0.6h-0.6l0.5,0.4L72.2,27.9
			L72.2,27.9z"/>
		<path id="Path_1059" class="st0" d="M72.6,26.2l0.5-0.4l0.5,0.4l-0.2-0.6l0.5-0.4h-0.6l-0.2-0.6l-0.2,0.6h-0.6l0.5,0.4L72.6,26.2
			L72.6,26.2z"/>
		<path id="Path_1060" class="st0" d="M72.2,24.5l0.5-0.4l0.5,0.4L73,23.9l0.5-0.4h-0.6l-0.2-0.6l-0.2,0.6h-0.6l0.5,0.4L72.2,24.5
			L72.2,24.5z"/>
		<path id="Path_1061" class="st0" d="M70.9,23.1l0.5-0.4l0.5,0.4l-0.2-0.6l0.5-0.4h-0.6l-0.2-0.6l-0.2,0.6h-0.6l0.5,0.4L70.9,23.1
			L70.9,23.1z"/>
		<path id="Path_1062" class="st0" d="M70.9,29.2l0.5-0.4l0.5,0.4l-0.2-0.6l0.5-0.4h-0.6l-0.2-0.6l-0.2,0.6h-0.6l0.5,0.4L70.9,29.2
			L70.9,29.2z"/>
		<path id="Path_1063" class="st0" d="M69.9,27.7l0.5-0.4l0.5,0.4l-0.2-0.6l0.5-0.4h-0.6l-0.2-0.6l-0.2,0.6h-0.6l0.5,0.4L69.9,27.7
			L69.9,27.7z"/>
		<path id="Path_1064" class="st0" d="M72,30.6l0.5-0.4l0.5,0.4L72.8,30l0.5-0.4h-0.6L72.5,29l-0.2,0.6h-0.6l0.5,0.4L72,30.6
			L72,30.6z"/>
		<path id="Path_1065" class="st3" d="M60,22.4c1.7-9.8,11-16.4,20.8-14.7c7.5,1.3,13.4,7.2,14.7,14.7h7.4
			c-1.7-13.9-14.3-23.7-28.2-22c-11.5,1.4-20.6,10.5-22,22H60z"/>
		<path id="Path_1066" class="st3" d="M95.7,25.5c-0.2,9.9-8.5,17.8-18.4,17.6c-9.6-0.2-17.4-8-17.6-17.6h-7.3
			c0,14,11.3,25.3,25.3,25.3S103,39.4,103,25.5H95.7z"/>
		<path id="Path_1067" class="st4" d="M72.6,46.9L72.6,46.9l-0.1-1.2"/>
		<path id="Path_1068" class="st5" d="M63.3,9.4c-0.3-0.2-0.6-0.2-0.9,0.1c-0.4,0.4-0.3,0.9,0.1,1.3c0.3,0.4,0.9,0.5,1.3,0.2
			c0,0,0,0,0,0c0.3-0.3,0.3-0.7,0-1c0,0,0,0,0,0l0.5-0.4c0.5,0.5,0.5,1.3,0,1.8c0,0,0,0-0.1,0c-0.6,0.6-1.5,0.6-2.1,0
			c0,0-0.1-0.1-0.1-0.1c-0.6-0.6-0.7-1.5-0.1-2.1c0,0,0.1-0.1,0.1-0.1c0.5-0.5,1.2-0.5,1.7-0.1L63.3,9.4z"/>
		<path id="Path_1069" class="st5" d="M65,6.7l2-1.2L67.3,6l-1.4,0.8l0.3,0.6l1.3-0.8l0.3,0.4l-1.3,0.8l0.4,0.6l1.4-0.9l0.3,0.5
			l-2,1.2L65,6.7z"/>
		<path id="Path_1070" class="st5" d="M69.2,4.5L70.8,4c0.4-0.2,0.9,0,1.1,0.5c0,0,0,0,0,0.1c0.2,0.3,0.1,0.7-0.2,0.9l0,0
			c0.3,0,0.6,0.2,0.7,0.5c0.1,0.2,0.2,0.5,0.4,0.6l-0.6,0.2c-0.1-0.2-0.2-0.4-0.3-0.7c-0.2-0.3-0.3-0.4-0.6-0.3L70.5,6l0.4,1.1
			l-0.7,0.2L69.2,4.5z M70.3,5.6L71,5.3c0.3-0.1,0.4-0.3,0.3-0.6S71,4.4,70.7,4.5L70,4.7L70.3,5.6z"/>
		<path id="Path_1071" class="st5" d="M74.8,3.6l-0.9,0.1l-0.1-0.6l2.5-0.3l0.1,0.6l-0.9,0.1L75.7,6L75,6.1L74.8,3.6z"/>
		<path id="Path_1072" class="st5" d="M78.4,2.8h0.7L79,5.9h-0.7L78.4,2.8z"/>
		<path id="Path_1073" class="st5" d="M81.5,3.1l2.1,0.4l-0.1,0.6L82,3.8l-0.2,0.7l1.3,0.3L83,5.3L81.8,5l-0.3,1.2l-0.7-0.1
			L81.5,3.1z"/>
		<path id="Path_1074" class="st5" d="M85.7,4.3l0.6,0.2l-1.1,2.9l-0.6-0.3L85.7,4.3z"/>
		<path id="Path_1075" class="st5" d="M88.5,5.5l2,1.2l-0.3,0.5l-1.4-0.8L88.5,7l1.3,0.7l-0.3,0.4l-1.3-0.8L87.8,8l1.4,0.9L89,9.4
			l-2-1.2L88.5,5.5z"/>
		<path id="Path_1076" class="st5" d="M92.5,8.2l0.9,0.9C94,9.6,94,10.5,93.6,11c-0.1,0.1-0.1,0.1-0.2,0.2c-0.4,0.6-1.3,0.8-1.9,0.3
			c-0.1,0-0.1-0.1-0.2-0.1l-0.9-0.9L92.5,8.2z M91.2,10.5l0.4,0.4c0.3,0.3,0.7,0.4,1.2-0.1c0.5-0.5,0.5-0.9,0.1-1.3l-0.3-0.3
			L91.2,10.5z"/>
		<path id="Path_1077" class="st5" d="M58.8,29.9l0.3,0.9l-1.8,1.3h2.2l0.3,0.9l-2.9,0.9l-0.2-0.6l2.1-0.7h-2.3l-0.2-0.5l1.9-1.4
			l0,0l-2.1,0.7L55.9,31L58.8,29.9z"/>
		<path id="Path_1078" class="st5" d="M60.5,34.6l0.3,0.6l-2.2,2.5L58.4,37l0.5-0.5l-0.6-1l-0.7,0.1L57.3,35L60.5,34.6z M58.9,35.4
			l0.4,0.7l0.8-0.9l0,0L58.9,35.4z"/>
		<path id="Path_1079" class="st5" d="M61.7,36.6l0.4,0.5l-0.8,2.3l0,0l1.6-1.3l0.4,0.5l-2.4,1.9L60.5,40l0.8-2.3l0,0L59.7,39
			l-0.4-0.5L61.7,36.6z"/>
		<path id="Path_1080" class="st5" d="M64.5,39.8l0.5,0.5l-1.2,3l-0.5-0.5l0.3-0.7l-0.9-0.7l-0.6,0.4l-0.5-0.5L64.5,39.8z
			 M63.2,41.1l0.6,0.5l0.5-1.1l0,0L63.2,41.1z"/>
		<path id="Path_1081" class="st5" d="M66.8,44.8c-0.3,0.1-0.7,0.1-0.9-0.1c-0.7-0.5-0.8-1.6-0.3-2.3c0.5-0.6,1.3-0.8,2-0.5
			c0.6,0.3,0.8,1,0.5,1.6l-0.6-0.3c0.1-0.3,0-0.6-0.3-0.8c-0.5-0.3-1,0-1.3,0.4c-0.3,0.4-0.2,1,0.2,1.3c0.3,0.2,0.7,0.1,0.9-0.2
			c0,0,0,0,0,0l-0.6-0.3l0.3-0.4l1.1,0.7L67,45.4l-0.3-0.2L66.8,44.8z"/>
		<path id="Path_1082" class="st5" d="M69.3,43.1l2.1,0.9l-0.2,0.5l-1.5-0.6l-0.3,0.6l1.4,0.6l-0.2,0.5L69.3,45L69,45.6l1.5,0.6
			l-0.2,0.5l-2.1-0.9L69.3,43.1z"/>
		<path id="Path_1083" class="st5" d="M72.1,44.2l0.9,0.2l0.3,2.2l0,0l1.1-1.9l0.9,0.2l-0.6,3l-0.6-0.1l0.4-2.1l0,0l-1.2,2l-0.5-0.1
			l-0.3-2.3l0,0l-0.4,2.1l-0.6-0.1L72.1,44.2z"/>
		<path id="Path_1084" class="st5" d="M76.2,44.9h2.3v0.6h-1.6v0.7h1.5v0.5h-1.5v0.7h1.7V48h-2.3L76.2,44.9z"/>
		<path id="Path_1085" class="st5" d="M79.2,45l0.7-0.1l1.6,1.9l0,0l-0.3-2.1l0.6-0.1l0.4,3l-0.7,0.1L80,45.9l0,0l0.3,2.1L79.7,48
			L79.2,45z"/>
		<path id="Path_1086" class="st5" d="M83.4,44.7L82.5,45l-0.1-0.5l2.4-0.7l0.2,0.5L84,44.5l0.8,2.4l-0.6,0.2L83.4,44.7z"/>
		<path id="Path_1087" class="st5" d="M88.1,44.4c0.2,0.3,0.5,0.4,0.8,0.2c0,0,0.1,0,0.1-0.1c0.2-0.1,0.5-0.4,0.3-0.6
			c-0.2-0.3-0.6-0.1-1,0c-0.4,0.1-0.9,0.2-1.2-0.3c-0.2-0.5,0-1.1,0.5-1.4c0,0,0,0,0,0c0.6-0.3,1.2-0.4,1.6,0.2l-0.6,0.3
			c-0.2-0.3-0.5-0.3-0.8-0.1c-0.3,0.2-0.4,0.3-0.2,0.5s0.3,0.2,1-0.1c0.2-0.1,0.9-0.3,1.2,0.3c0.3,0.6,0.1,1.1-0.6,1.5
			c-0.5,0.4-1.2,0.3-1.6-0.2c0,0-0.1-0.1-0.1-0.1L88.1,44.4z"/>
		<path id="Path_1088" class="st5" d="M91,42.2L89,41.5l0.6-0.5l1.3,0.5l-0.2-1.4l0.6-0.5l0.3,2.2l0.7,0.9l-0.5,0.4L91,42.2z"/>
		<path id="Path_1089" class="st5" d="M93.4,40.3c0.2,0.2,0.6,0.2,0.8,0c0,0,0-0.1,0.1-0.1c0.2-0.2,0.3-0.5,0.1-0.7
			s-0.6,0.1-0.9,0.3c-0.3,0.4-0.9,0.4-1.3,0.1c-0.4-0.4-0.4-1.1,0-1.5c0,0,0,0,0,0c0.4-0.5,1-0.7,1.6-0.3l-0.4,0.5
			c-0.3-0.2-0.5-0.1-0.8,0.2c-0.2,0.1-0.2,0.4-0.1,0.6c0,0,0,0,0,0c0.2,0.2,0.3,0.1,0.9-0.4c0.3-0.4,0.9-0.4,1.3-0.1
			c0.4,0.4,0.4,0.9-0.1,1.6c-0.3,0.5-1,0.7-1.6,0.3c0,0-0.1-0.1-0.1-0.1L93.4,40.3z"/>
		<path id="Path_1090" class="st5" d="M94.4,36.7l-0.5,0.8l-0.5-0.3l1.4-2.1l0.5,0.3l-0.5,0.8l2.1,1.4l-0.4,0.6L94.4,36.7z"/>
		<path id="Path_1091" class="st5" d="M95,34.5l0.9-2.1l0.5,0.2l-0.7,1.5l0.6,0.3L97,33l0.5,0.2l-0.6,1.4l0.7,0.3l0.7-1.5l0.5,0.2
			l-0.9,2.1L95,34.5z"/>
		<path id="Path_1092" class="st5" d="M96.2,31.7l0.2-0.9l2.2-0.2l0,0l-1.9-1.2l0.2-0.9l3,0.7l-0.2,0.6l-2.1-0.5l0,0l1.9,1.2
			l-0.1,0.5l-2.3,0.2l0,0l2.1,0.5l-0.2,0.6L96.2,31.7z"/>
		<g id="V9Eo9s">
			<path id="Path_1093" class="st6" d="M25.3,50.8C11.3,50.8,0,39.4,0,25.5S11.3,0.2,25.3,0.2c14,0,25.3,11.3,25.3,25.3
				C50.6,39.4,39.2,50.8,25.3,50.8C25.3,50.8,25.3,50.8,25.3,50.8z M25.3,0.6C11.5,0.6,0.4,11.7,0.4,25.5s11.1,24.9,24.9,24.9
				c13.7,0,24.9-11.1,24.9-24.9c0,0,0,0,0,0C50.1,11.8,39,0.6,25.3,0.6L25.3,0.6z"/>
			<path id="Path_1094" class="st6" d="M27.8,22.8h-5.5c-1.3,0-1.3,5.8,0,5.8h5.6c0.1,0,0.2-0.1,0.3-0.2l-2.8-1.7l0,0l0.8-1.4
				l2.6,1.5v-0.3C29,24.8,28.6,22.8,27.8,22.8z M28.5,26.3L28.5,26.3l-2.4-1.4l0,0L25,26.8l0,0l2.5,1.5h-5c-1,0-1-5.2,0-5.2h5.3
				C28.3,23.1,28.6,24.8,28.5,26.3L28.5,26.3z M39.7,24.6h-7.4c-0.2,0-0.4-0.2-0.4-0.4v-0.8c0-0.2,0.2-0.4,0.4-0.4h5.8
				c0.2,0,0.4,0.2,0.4,0.4v0.5H41c0,0,0.1-3.1-1.3-3.1h-8.9c-0.3,0-0.5,0.1-0.7,0.3c-0.2-0.2-0.4-0.3-0.6-0.3h-8.8
				c-0.3,0-0.5,0.1-0.7,0.3c-0.2-0.2-0.4-0.3-0.7-0.3h-8.8c-1.8,0-1.8,5.8,0,5.8h7.3c0.2,0,0.4,0.2,0.4,0.4c0,0,0,0,0,0v0.8
				c0,0.2-0.1,0.4-0.4,0.4c0,0,0,0,0,0H12c-0.2,0-0.4-0.2-0.4-0.4v-0.5H9.2c0,0-0.1,3.1,1.3,3.1h8.8c0.3,0,0.5-0.1,0.7-0.2
				c0.2,0.2,0.4,0.3,0.6,0.3h8.8c0.3,0,0.6-0.2,0.8-0.5l0.4,0.2c0.2,0.1,0.5,0.2,0.8,0.3h8.2C41.6,30.4,41.6,24.7,39.7,24.6
				L39.7,24.6z M20,29.7c0,0.1-0.1,0.2-0.2,0.2c-0.1,0.1-0.3,0.2-0.5,0.2h-8.9c-0.8,0-0.9-1.8-1-2.4h1.8v0.2c0,0.4,0.3,0.7,0.7,0.7
				h5.7c0.4,0,0.7-0.3,0.7-0.7v-0.8c0-0.4-0.3-0.7-0.7-0.7h-7.3c-1.4,0-1.4-5.2,0-5.2h8.8c0.2,0,0.4,0.1,0.5,0.3
				c0.1,0.1,0.1,0.2,0.2,0.3c0.2,0.6,0.3,1.2,0.4,1.9h-1.9v-0.2c0-0.4-0.3-0.7-0.7-0.7H12c-0.4,0-0.7,0.3-0.7,0.7v0.8
				c0,0.4,0.3,0.7,0.7,0.7h7.3C20.6,24.9,20.8,28.4,20,29.7L20,29.7z M19.1,23.9c0,0.2,0,0.4-0.1,0.7h-7c-0.2,0-0.4-0.2-0.4-0.4
				c0,0,0,0,0,0v-0.8c0-0.2,0.2-0.4,0.4-0.4c0,0,0,0,0,0h5.7c0.2,0,0.4,0.2,0.4,0.4c0,0,0,0,0,0v0.5L19.1,23.9z M30.2,29.6
				c0,0.1-0.1,0.2-0.2,0.3c-0.1,0.2-0.3,0.3-0.6,0.3h-8.8c-0.2,0-0.3-0.1-0.5-0.2c0.9-1.4,0.7-5.3-0.9-5.3c0-0.2,0-0.5,0.1-0.7h1.2
				c0-0.8-0.1-1.7-0.5-2.5c0.1-0.2,0.3-0.3,0.5-0.3h8.8c0.2,0,0.4,0.1,0.5,0.2c0.1,0.1,0.1,0.2,0.2,0.3c0.6,1.5,0.8,3.1,0.7,4.7v0.3
				c0,0.3,0,0.6-0.1,0.9L30.7,28C30.6,28.5,30.4,29.1,30.2,29.6L30.2,29.6z M39.7,30.2h-8.2c-0.2,0-0.5-0.1-0.7-0.2l-0.4-0.2
				c0.2-0.5,0.4-1,0.5-1.6l0.1,0.1c0.4,0.2,0.7,0.3,1.2,0.3h5.9c0.4,0,0.7-0.3,0.7-0.7v-0.8c0-0.4-0.3-0.7-0.7-0.7c0,0,0,0,0,0h-7
				c0.2-1.7-0.1-3.4-0.8-5c0.1-0.2,0.3-0.2,0.5-0.3h8.8c0.8,0,0.9,1.8,1,2.4h-1.9v-0.2c0-0.4-0.3-0.7-0.7-0.7h-5.7
				c-0.4,0-0.7,0.3-0.7,0.7v0.8c0,0.4,0.3,0.7,0.7,0.7h7.3C41.2,24.9,41.2,30.2,39.7,30.2L39.7,30.2z M31,27.8
				c0.1-0.4,0.1-0.7,0.1-1.1h7c0.2,0,0.4,0.2,0.4,0.4v0.8c0,0.2-0.2,0.4-0.4,0.4c0,0,0,0,0,0h-5.8C31.9,28.2,31.5,28.1,31,27.8
				L31,27.8z"/>
			<path id="Path_1095" class="st6" d="M40.5,20.1c-3-8.5-12.2-12.9-20.7-10c-4.7,1.6-8.4,5.3-10,10L9.5,20
				c3-8.7,12.5-13.3,21.2-10.2c4.8,1.7,8.6,5.4,10.2,10.2L40.5,20.1z"/>
			<path id="Path_1096" class="st6" d="M25.2,42.1c-7,0-13.2-4.4-15.6-10.9l0.4-0.1c3.1,8.4,12.4,12.8,20.9,9.7
				c4.5-1.6,8.1-5.2,9.7-9.7l0.4,0.1C38.4,37.8,32.2,42.1,25.2,42.1z"/>
			<path id="Path_1097" class="st6" d="M5.8,26.7c0,0.4-0.1,0.8-0.3,1l-0.4-0.4c0.2-0.2,0.2-0.4,0.2-0.7c0-0.3-0.1-0.5-0.4-0.5
				c-0.1,0-0.2,0-0.2,0.1c-0.1,0.1-0.1,0.2-0.1,0.3v0.4c0,0.2-0.1,0.4-0.2,0.6c-0.1,0.1-0.3,0.2-0.5,0.2c-0.5,0-0.9-0.3-0.9-0.8
				c0,0,0-0.1,0-0.1c0-0.3,0.1-0.7,0.3-0.9l0.4,0.3c-0.1,0.2-0.2,0.4-0.2,0.6c0,0.2,0.1,0.4,0.3,0.4c0,0,0,0,0.1,0
				c0.1,0,0.1,0,0.2-0.1C4,27,4.1,26.9,4.1,26.8v-0.3c0-0.2,0.1-0.4,0.2-0.6c0.2-0.2,0.4-0.3,0.6-0.2C5.4,25.7,5.8,26.1,5.8,26.7
				C5.8,26.6,5.8,26.6,5.8,26.7z"/>
			<path id="Path_1098" class="st6" d="M3.3,24.9H2.9v-0.5h0.4V24.9z M5.7,25l-2.1-0.1v-0.5l2.1,0.1L5.7,25z"/>
			<path id="Path_1099" class="st6" d="M5.9,23.2c0,0.3-0.2,0.6-0.4,0.8l-0.3-0.4c0.2-0.1,0.3-0.3,0.3-0.5c0-0.2,0-0.4-0.2-0.4
				c-0.2,0-0.2,0-0.2,0.2L5,23.2c-0.1,0.4-0.3,0.6-0.7,0.5c-0.4-0.1-0.6-0.4-0.6-0.8c0,0,0,0,0,0c0-0.3,0.1-0.6,0.3-0.7l0.3,0.4
				c-0.1,0.1-0.2,0.3-0.2,0.5c0,0.2,0.1,0.3,0.2,0.3c0.1,0,0.2,0,0.2-0.2l0.1-0.3c0.1-0.4,0.3-0.6,0.7-0.5S5.9,22.7,5.9,23.2z"/>
			<path id="Path_1100" class="st6" d="M6.2,21.2c0,0.3-0.3,0.5-0.6,0.5c0,0-0.1,0-0.1,0l-1-0.2v0.2l-0.4-0.1l0-0.2l-0.6-0.1
				l0.1-0.5l0.6,0.1l0.1-0.4l0.4,0.1l-0.1,0.4l0.9,0.2c0.1,0,0.2,0,0.2-0.1v-0.2l0.4,0.1L6.2,21.2z"/>
			<path id="Path_1101" class="st6" d="M5.7,19.7c0.2,0.1,0.5,0,0.6-0.2c0,0,0,0,0-0.1c0.1-0.2,0.1-0.3,0-0.5l0.4-0.2
				c0.2,0.3,0.2,0.6,0.1,0.8c-0.2,0.5-0.5,0.8-1.3,0.6c-0.5-0.1-0.8-0.5-0.8-1c0.1-0.5,0.5-0.8,1-0.8c0.1,0,0.1,0,0.2,0.1l0.2,0.1
				L5.7,19.7z M5.4,18.8c-0.1,0-0.3,0.1-0.3,0.3c-0.1,0.1,0,0.3,0.1,0.4c0.1,0,0.1,0.1,0.2,0.1l0.2-0.7C5.5,18.8,5.5,18.8,5.4,18.8
				L5.4,18.8z"/>
			<path id="Path_1102" class="st6" d="M8.2,16.1L7,15.6c-0.2-0.1-0.4-0.1-0.5,0.1c-0.1,0.2-0.1,0.4,0.1,0.5c0,0,0.1,0,0.1,0.1
				l1.1,0.6l-0.2,0.5l-1.1-0.6c-0.2-0.1-0.4-0.1-0.5,0.1S6,17.1,6.1,17.2c0,0,0.1,0,0.1,0.1l1.1,0.6l-0.2,0.5l-1.9-0.9l0.2-0.4
				l0.2,0.1c-0.1-0.2-0.1-0.4,0-0.6C5.7,16.2,5.9,16,6.1,16c-0.1-0.2-0.1-0.5,0-0.7C6.3,15.2,6.4,15,6.6,15C6.8,14.9,7,14.9,7.2,15
				l1.2,0.6L8.2,16.1z"/>
			<path id="Path_1103" class="st6" d="M9.4,14.3l-0.1-0.1c0,0.2,0,0.4-0.1,0.5C9,14.8,8.8,15,8.6,15c-0.2,0-0.3,0-0.5-0.1
				C7.9,14.7,7.8,14.3,8,14C8,14,8,14,8.1,14l0.3-0.4l-0.1-0.1c-0.2-0.1-0.3-0.1-0.5,0.1c-0.1,0.1-0.1,0.3-0.1,0.4l-0.5,0.1
				c-0.1-0.3,0-0.6,0.2-0.8c0.3-0.5,0.7-0.6,1.1-0.3l1.1,0.8L9.4,14.3z M8.6,13.8l-0.2,0.3c-0.1,0.2-0.1,0.3,0,0.4
				c0.1,0.1,0.3,0,0.3-0.1c0,0,0,0,0,0c0.1-0.1,0.1-0.2,0.1-0.3C8.9,13.9,8.8,13.9,8.6,13.8L8.6,13.8z"/>
			<path id="Path_1104" class="st6" d="M11.5,11.7l-0.1-0.1c0,0.2-0.1,0.4-0.2,0.5c-0.1,0.1-0.3,0.2-0.5,0.2
				c-0.3-0.1-0.6-0.2-0.8-0.5c-0.2-0.2-0.5-0.5-0.5-0.8c0-0.2,0.1-0.4,0.2-0.5c0.1-0.1,0.3-0.2,0.5-0.2L9.5,9.7l0.4-0.4l2,2
				L11.5,11.7z M10.1,10.8c-0.2,0.2-0.1,0.4,0.2,0.7c0.2,0.2,0.5,0.4,0.7,0.2c0.2-0.2,0.1-0.4-0.2-0.7S10.3,10.6,10.1,10.8z"/>
			<path id="Path_1105" class="st6" d="M10.8,9.1l-0.3-0.3l0.4-0.3l0.3,0.3L10.8,9.1z M12.4,10.9L11,9.3L11.4,9l1.3,1.6L12.4,10.9z"
				/>
			<path id="Path_1106" class="st6" d="M16.2,8.3l-0.6-1.1C15.5,7,15.3,6.9,15.1,7c0,0,0,0-0.1,0c-0.2,0.1-0.2,0.3-0.1,0.5
				c0,0,0,0,0,0l0.6,1.1l-0.5,0.3l-0.6-1.1c-0.1-0.2-0.3-0.3-0.4-0.2c-0.2,0.1-0.3,0.3-0.2,0.4c0,0,0,0.1,0.1,0.1l0.6,1.1l-0.4,0.3
				l-1-1.8l0.4-0.3l0.1,0.2c0-0.2,0.2-0.4,0.3-0.4c0.2-0.1,0.4-0.1,0.6,0c0-0.2,0.2-0.4,0.4-0.5c0.2-0.1,0.3-0.1,0.5-0.1
				c0.2,0.1,0.4,0.2,0.5,0.4L16.6,8L16.2,8.3z"/>
			<path id="Path_1107" class="st6" d="M18.2,7.4l-0.1-0.2c-0.1,0.2-0.2,0.3-0.4,0.4c-0.2,0.1-0.4,0.1-0.6,0
				c-0.1-0.1-0.2-0.2-0.3-0.3c-0.1-0.3,0-0.6,0.4-0.8l0.5-0.2V6.2C17.7,6,17.5,5.9,17.3,6c-0.1,0-0.3,0.2-0.3,0.3l-0.4-0.2
				c0.1-0.3,0.3-0.5,0.6-0.5c0.5-0.2,0.9-0.1,1.1,0.3l0.5,1.3L18.2,7.4z M17.8,6.6l-0.4,0.2c-0.2,0.1-0.2,0.2-0.2,0.3
				c0.1,0.1,0.2,0.2,0.4,0.1c0.1,0,0.2-0.1,0.3-0.2c0-0.1,0-0.2,0-0.3L17.8,6.6z"/>
			<path id="Path_1108" class="st6" d="M20.4,6.7l-0.3-1.2c0-0.2-0.2-0.3-0.4-0.3c-0.2,0-0.3,0.2-0.3,0.4c0,0,0,0.1,0,0.1l0.3,1.2
				L19.3,7l-0.5-2l0.5-0.1l0,0.2c0.1-0.2,0.2-0.3,0.4-0.4c0.2-0.1,0.4,0,0.5,0c0.2,0.1,0.4,0.3,0.4,0.5l0.3,1.3L20.4,6.7z"/>
			<path id="Path_1109" class="st6" d="M22.6,6.2V6.1c-0.1,0.2-0.3,0.3-0.5,0.3c-0.2,0-0.4,0-0.6-0.1c-0.1-0.1-0.2-0.3-0.3-0.4
				c0-0.3,0.1-0.6,0.6-0.7l0.5-0.1V4.9c0-0.2-0.2-0.3-0.4-0.3c-0.2,0-0.3,0.1-0.4,0.2l-0.4-0.3c0.2-0.2,0.4-0.4,0.7-0.4
				c0.6-0.1,0.9,0.1,1,0.6l0.2,1.3L22.6,6.2z M22.5,5.4l-0.4,0.1c-0.1,0-0.2,0.1-0.3,0.2c0,0,0,0.1,0,0.1c0,0.1,0.1,0.2,0.3,0.2
				c0.1,0,0.2,0,0.3-0.1c0-0.1,0-0.2,0-0.3L22.5,5.4z"/>
			<path id="Path_1110" class="st6" d="M24.5,6.9c-0.3,0-0.6-0.1-0.8-0.2L24,6.3c0.1,0.1,0.3,0.2,0.4,0.1c0.2,0,0.4-0.1,0.4-0.4
				c0,0,0-0.1,0-0.1V5.8C24.7,5.9,24.5,6,24.3,6C24.2,6,24,6,23.8,5.8c-0.2-0.2-0.3-0.5-0.2-0.8c-0.1-0.3,0-0.6,0.2-0.8
				C23.9,4,24.1,4,24.3,4c0.2,0,0.4,0.1,0.5,0.2V4h0.5l0.1,2c0,0.5-0.3,0.9-0.8,0.9C24.5,6.9,24.5,6.9,24.5,6.9L24.5,6.9z M24.5,4.5
				c-0.3,0-0.3,0.3-0.3,0.6c0,0.3,0,0.5,0.4,0.5c0.3,0,0.3-0.3,0.3-0.6C24.8,4.7,24.7,4.5,24.5,4.5L24.5,4.5z"/>
			<path id="Path_1111" class="st6" d="M26.5,5.2c0,0.2,0.1,0.5,0.4,0.5c0,0,0,0,0.1,0c0.2,0,0.4,0,0.5-0.2l0.3,0.3
				c-0.2,0.2-0.5,0.3-0.8,0.3c-0.5,0-0.9-0.3-0.9-1.1c0.1-0.7,0.4-1,1-0.9c0.5,0.1,0.9,0.5,0.8,1c0,0,0,0,0,0v0.2L26.5,5.2z
				 M27.3,4.7c-0.1-0.2-0.3-0.3-0.5-0.2c-0.1,0-0.1,0.1-0.2,0.2c0,0.1-0.1,0.1-0.1,0.2l0.8,0.1C27.3,4.9,27.3,4.8,27.3,4.7z"/>
			<path id="Path_1112" class="st6" d="M30.6,6.8l0.3-1.2c0.1-0.2,0-0.4-0.2-0.5c-0.2-0.1-0.4,0-0.5,0.2c0,0,0,0.1,0,0.1L30,6.6
				l-0.5-0.1l0.3-1.2c0-0.2-0.1-0.4-0.2-0.4c0,0,0,0-0.1,0c-0.2,0-0.4,0.1-0.4,0.2c0,0,0,0,0,0.1l-0.3,1.2l-0.5-0.1l0.5-2l0.5,0.1
				l0,0.2c0.2-0.1,0.4-0.1,0.6-0.1c0.2,0,0.4,0.2,0.5,0.4c0.2-0.1,0.4-0.2,0.7-0.1c0.2,0,0.3,0.1,0.4,0.3c0.1,0.2,0.2,0.4,0.1,0.6
				l-0.3,1.3L30.6,6.8z"/>
			<path id="Path_1113" class="st6" d="M32.4,6.5c-0.1,0.2,0,0.5,0.2,0.6c0,0,0,0,0.1,0c0.2,0.1,0.3,0.1,0.5,0l0.2,0.4
				c-0.3,0.1-0.6,0.1-0.9,0c-0.5-0.2-0.7-0.7-0.6-1.2c0-0.1,0-0.1,0.1-0.2c0.1-0.5,0.6-0.8,1.1-0.7c0.5,0.1,0.8,0.6,0.7,1.1
				c0,0.1,0,0.1-0.1,0.2L33.6,7L32.4,6.5z M33.3,6.2c0-0.2-0.1-0.3-0.2-0.3c-0.1-0.1-0.3,0-0.4,0.1c-0.1,0.1-0.1,0.1-0.1,0.2
				l0.7,0.3C33.3,6.4,33.3,6.3,33.3,6.2L33.3,6.2z"/>
			<path id="Path_1114" class="st6" d="M34.8,8.6l0.6-1.1c0.1-0.1,0.1-0.4-0.1-0.5c0,0,0,0,0,0c-0.2-0.1-0.4,0-0.5,0.1c0,0,0,0,0,0
				l-0.6,1.1L33.7,8l1-1.8l0.4,0.2L35,6.6c0.2-0.1,0.4,0,0.6,0.1c0.2,0.1,0.3,0.2,0.3,0.4c0.1,0.2,0,0.4-0.1,0.6l-0.6,1.2L34.8,8.6z
				"/>
			<path id="Path_1115" class="st6" d="M36.3,9.6c-0.3-0.2-0.4-0.5-0.2-0.8c0,0,0,0,0-0.1l0.6-0.8l-0.2-0.1l0.2-0.3L37,7.6l0.3-0.5
				l0.4,0.3l-0.3,0.5l0.3,0.2l-0.2,0.3l-0.3-0.2L36.6,9c-0.1,0.1-0.1,0.2,0,0.2c0,0,0,0,0,0l0.2,0.1l-0.2,0.4L36.3,9.6z"/>
			<path id="Path_1116" class="st6" d="M38.4,11.3c-0.4-0.3-0.4-0.9-0.1-1.3c0,0,0.1-0.1,0.1-0.1c0.3-0.4,0.9-0.5,1.3-0.2
				c0,0,0.1,0,0.1,0.1c0.2,0.2,0.3,0.4,0.3,0.7h-0.5c0-0.1,0-0.3-0.1-0.3c-0.1-0.1-0.2-0.1-0.3-0.1c-0.2,0-0.3,0.1-0.4,0.3
				c-0.1,0.1-0.2,0.3-0.2,0.4c0,0.1,0,0.2,0.1,0.3C38.8,11,39,11,39.1,11v0.5C38.8,11.5,38.6,11.4,38.4,11.3L38.4,11.3z"/>
			<path id="Path_1117" class="st6" d="M40.2,11.7c-0.2,0.2-0.2,0.4,0,0.6c0,0,0,0,0,0c0.1,0.1,0.3,0.2,0.4,0.2V13
				c-0.5,0-1-0.4-1-0.9c0-0.3,0.1-0.7,0.4-0.8c0.3-0.4,0.9-0.4,1.3-0.1c0.4,0.3,0.4,0.9,0.1,1.3c-0.1,0.1-0.1,0.1-0.2,0.2L41,12.7
				L40.2,11.7z M41.1,11.9c0.1-0.2,0-0.4-0.2-0.5c-0.1,0-0.2,0-0.2,0c-0.1,0-0.1,0.1-0.2,0.1l0.5,0.6C41,12,41.1,11.9,41.1,11.9
				L41.1,11.9z"/>
			<path id="Path_1118" class="st6" d="M42.6,13.7c0-0.1,0-0.2-0.1-0.3c-0.1-0.2-0.3-0.2-0.5-0.1c0,0,0,0,0,0l-1,0.7l-0.3-0.4
				l1.7-1.2l0.3,0.4L42.5,13c0.2,0,0.4,0.1,0.5,0.3c0.1,0.1,0.2,0.3,0.1,0.5L42.6,13.7z"/>
			<path id="Path_1119" class="st6" d="M42.1,15.8c-0.2-0.2-0.1-0.6,0.1-0.8c0,0,0,0,0.1,0l0.9-0.5l-0.1-0.2l0.3-0.2l0.1,0.2
				l0.5-0.3l0.3,0.4l-0.5,0.3L44,15l-0.3,0.2l-0.2-0.3l-0.9,0.5c-0.1,0-0.1,0.1-0.1,0.2c0,0,0,0,0,0l0.1,0.2l-0.4,0.2L42.1,15.8z"/>
			<path id="Path_1120" class="st6" d="M42.6,16.6l1.9-0.9l0.2,0.5L42.8,17L42.6,16.6z M44.7,15.5l0.4-0.2l0.2,0.5L45,16L44.7,15.5z
				"/>
			<path id="Path_1121" class="st6" d="M44.8,17.6l-1.5,0.6l-0.2-0.5l1.5-0.6l-0.1-0.2l0.4-0.2l0.1,0.2l0.2-0.1
				c0.3-0.1,0.6,0,0.8,0.3c0,0,0,0,0,0.1l0.1,0.3l-0.4,0.2l-0.1-0.2c0-0.1-0.1-0.1-0.2-0.1l-0.2,0.1l0.2,0.3l-0.4,0.2L44.8,17.6z"/>
			<path id="Path_1122" class="st6" d="M43.6,19l2-0.7l0.2,0.5l-2,0.7L43.6,19z M45.9,18.2l0.4-0.1l0.2,0.5l-0.4,0.1L45.9,18.2z"/>
			<path id="Path_1123" class="st6" d="M44.2,21c-0.1-0.4,0-0.9,0.8-1.2c0.5-0.2,1,0.1,1.2,0.5c0.1,0.3,0.1,0.6-0.1,0.8l-0.4-0.3
				c0.1-0.1,0.1-0.2,0.1-0.4c0-0.1-0.1-0.2-0.2-0.3c-0.2,0-0.3,0-0.5,0c-0.2,0-0.3,0.1-0.4,0.2c-0.1,0.1-0.1,0.2-0.1,0.3
				c0,0.1,0.1,0.2,0.2,0.3l-0.3,0.4C44.4,21.4,44.2,21.2,44.2,21z"/>
			<path id="Path_1124" class="st6" d="M44.6,23.1h0.2c-0.2-0.1-0.2-0.3-0.3-0.5c0-0.2,0-0.4,0.1-0.6c0.1-0.1,0.3-0.2,0.4-0.2
				c0.3,0,0.6,0.1,0.7,0.6l0.1,0.5h0.1c0.2,0,0.3-0.2,0.3-0.4c0-0.2-0.1-0.3-0.2-0.4l0.3-0.4c0.2,0.2,0.4,0.4,0.4,0.7
				c0.1,0.6-0.1,0.9-0.6,0.9l-1.3,0.2L44.6,23.1z M45.5,23l-0.1-0.4c0-0.1-0.1-0.2-0.2-0.3c0,0-0.1,0-0.1,0c-0.1,0-0.2,0.1-0.2,0.3
				c0,0.1,0.1,0.2,0.1,0.3c0.1,0,0.2,0,0.3,0L45.5,23z"/>
			<path id="Path_1125" class="st6" d="M44.8,24.9c0-0.3,0.2-0.6,0.5-0.6c0,0,0,0,0.1,0l1,0v-0.2h0.4v0.2h0.6v0.5h-0.6v0.4h-0.4
				v-0.4l-1,0c-0.1,0-0.2,0-0.2,0.1c0,0,0,0,0,0.1v0.2h-0.4L44.8,24.9z"/>
			<path id="Path_1126" class="st6" d="M44.9,27.2c-0.2-0.2-0.2-0.4-0.2-0.7c0-0.2,0.1-0.5,0.3-0.6c0.2-0.2,0.5-0.2,0.8-0.2
				c0.3,0,0.6,0.1,0.8,0.3c0.3,0.4,0.3,0.9-0.1,1.3c-0.2,0.2-0.5,0.2-0.8,0.2C45.4,27.5,45.2,27.4,44.9,27.2L44.9,27.2z M46.3,26.9
				c0.1-0.1,0.1-0.1,0.1-0.2c0-0.1,0-0.2-0.1-0.2c-0.1-0.1-0.3-0.2-0.5-0.1c-0.2,0-0.4,0-0.5,0.1c-0.1,0.1-0.1,0.1-0.1,0.2
				c0,0.1,0,0.2,0.1,0.2c0.1,0.1,0.3,0.2,0.5,0.1C45.9,27,46.1,27,46.3,26.9L46.3,26.9z"/>
			<path id="Path_1127" class="st6" d="M17.1,46.2l1.1-2.6l0.5,0.2l-1.1,2.6L17.1,46.2z"/>
			<path id="Path_1128" class="st6" d="M19.2,46.9c-0.4-0.1-0.7-0.3-0.9-0.7l0.4-0.2c0.1,0.2,0.3,0.4,0.6,0.4c0.3,0.1,0.5,0,0.6-0.2
				c0-0.1,0-0.2,0-0.3c0-0.1-0.1-0.1-0.2-0.2l-0.3-0.1c-0.2-0.1-0.3-0.2-0.5-0.4c-0.1-0.2-0.1-0.4,0-0.6c0.2-0.5,0.7-0.7,1.1-0.6
				c0,0,0,0,0,0c0.3,0.1,0.6,0.3,0.8,0.6L20.4,45c-0.1-0.2-0.3-0.3-0.5-0.4c-0.2-0.1-0.4,0-0.5,0.2c0,0,0,0,0,0c0,0.1,0,0.2,0,0.2
				c0.1,0.1,0.1,0.1,0.2,0.2l0.3,0.1c0.2,0.1,0.3,0.2,0.5,0.4c0.1,0.2,0.1,0.4,0,0.6C20.2,46.9,19.6,47.1,19.2,46.9L19.2,46.9z"/>
			<path id="Path_1129" class="st6" d="M22.7,47.4c-0.2,0.2-0.5,0.2-0.8,0.2c-0.3,0-0.5-0.2-0.7-0.4C21,46.8,21,46.4,21.1,46
				c0.1-0.5,0.1-0.8,0.4-1.1c0.2-0.2,0.5-0.2,0.8-0.2c0.3,0,0.5,0.2,0.7,0.4c0.2,0.4,0.2,0.8,0.1,1.2C23.1,46.8,23.1,47.1,22.7,47.4
				z M22.6,45.4c-0.1-0.1-0.2-0.2-0.3-0.2c-0.1,0-0.3,0-0.4,0.1c-0.1,0.1-0.2,0.2-0.3,0.8c-0.1,0.5-0.1,0.7,0,0.8
				c0.1,0.1,0.2,0.2,0.3,0.2c0.1,0,0.3,0,0.4-0.1c0.1-0.1,0.2-0.2,0.3-0.8C22.7,45.7,22.7,45.5,22.6,45.4z"/>
			<path id="Path_1130" class="st6" d="M26.3,46.6l-0.6,1.2h-0.6l0.6-1.2c-0.1,0-0.1,0-0.2,0c-0.4,0-0.8-0.4-0.8-0.8c0,0,0,0,0,0
				c0-0.5,0.5-0.8,1-0.8c0.4,0,0.8,0.4,0.8,0.8C26.5,46.1,26.4,46.3,26.3,46.6z M25.6,45.4c-0.2,0-0.4,0.2-0.4,0.4
				c0,0.2,0.2,0.4,0.4,0.4c0.2,0,0.4-0.2,0.4-0.4S25.8,45.4,25.6,45.4L25.6,45.4z"/>
			<path id="Path_1131" class="st6" d="M28.1,47.6c-0.4,0.1-0.9-0.2-0.9-0.7c0,0,0,0,0,0L27,45.7c-0.1-0.4,0.2-0.9,0.7-0.9
				c0,0,0,0,0.1,0c0.4-0.1,0.9,0.2,0.9,0.7c0,0,0,0,0,0.1l0.2,1.2C28.9,47.1,28.6,47.5,28.1,47.6C28.1,47.6,28.1,47.6,28.1,47.6z
				 M28.1,45.6c0-0.2-0.2-0.3-0.4-0.3c0,0,0,0,0,0c-0.2,0-0.3,0.2-0.3,0.4c0,0,0,0,0,0l0.2,1.2c0,0.2,0.2,0.3,0.4,0.3c0,0,0,0,0,0
				c0.2,0,0.3-0.2,0.3-0.4c0,0,0,0,0,0L28.1,45.6z"/>
			<path id="Path_1132" class="st6" d="M30.5,47.1c-0.4,0.1-0.9-0.1-1-0.5c0,0,0-0.1,0-0.1l-0.3-1.2c-0.1-0.5,0.2-0.9,0.7-1
				c0.4-0.1,0.9,0.2,1,0.6l0.3,1.1c0.1,0.4-0.1,0.9-0.5,1C30.6,47.1,30.5,47.1,30.5,47.1z M30.3,45.1c0-0.2-0.2-0.3-0.4-0.3
				c0,0,0,0-0.1,0c-0.2,0-0.3,0.2-0.3,0.4c0,0,0,0,0,0l0.3,1.1c0,0.2,0.2,0.3,0.4,0.3c0.2,0,0.3-0.2,0.3-0.4c0,0,0-0.1,0-0.1
				L30.3,45.1z"/>
			<path id="Path_1133" class="st6" d="M32.5,46.5l-0.8-2.1L31.3,45l-0.2-0.5l0.4-0.7l0.5-0.2l1,2.7L32.5,46.5z"/>
		</g>
	</g>
</g>
</svg>
