<svg xmlns="http://www.w3.org/2000/svg" width="87.23" height="77.42" viewBox="0 0 87.23 77.42"><title>temp</title><path d="M131.46,177.65a12.65,12.65,0,0,1-9.63-4.66,11.82,11.82,0,0,1-11.26-.81c-3.44-2.1-5.36-5.47-5.72-10l-.47-.25-.92-.49-.09-.05A12,12,0,0,1,98.58,147a12.31,12.31,0,0,1,6.65-7c-1.31-5.84.61-10.47,5.56-13.45,4.28-2.62,9.2-2.25,13.64,1,2.77-4.29,7.13-6.74,11.38-6.32,8.77.72,11.1,8.29,11.1,12.2h-2c0-.39-.11-9.46-9.28-10.2-3.78-.39-7.72,2.09-10,6.28l-.58,1.06-.93-.77c-4-3.3-8.44-3.85-12.24-1.52-4.42,2.66-5.92,6.72-4.46,12.09l.25.9-.89.3a10.32,10.32,0,0,0-6.28,6.21,10,10,0,0,0,4,12l.93.49c.32.17.63.34.93.48l.52.27,0,.58c.2,4.2,1.78,7.14,4.82,9a9.87,9.87,0,0,0,10,.37l.76-.41.52.68a10.24,10.24,0,0,0,18.26-2.63l.31-.88.9.26c4.9,1.38,7.83,1,10.46-1.38l1.34,1.48c-3.65,3.3-7.78,3-11.47,2.06a12.29,12.29,0,0,1-9.43,7.47A11.24,11.24,0,0,1,131.46,177.65Z" transform="translate(-97.78 -111.63)" fill="#010101"/><path d="M159.72,189.05h-.16A12.64,12.64,0,0,1,150,168.3l1.54,1.28a10.66,10.66,0,0,0,.54,14.26,10.54,10.54,0,0,0,7.46,3.21h.14a10.85,10.85,0,0,0,10.71-11.18,11.65,11.65,0,0,0-4.84-8.44l-.38-.3V120a6.33,6.33,0,0,0-.86-3.6,6,6,0,0,0-3.07-2.53,4.57,4.57,0,0,0-4,.39,5.81,5.81,0,0,0-3.11,5.4v43.64h-2v-43.6a7.8,7.8,0,0,1,4.14-7.19,6.56,6.56,0,0,1,5.59-.53,7.9,7.9,0,0,1,4.13,3.41,8.25,8.25,0,0,1,1.14,4.68v46.05a13.47,13.47,0,0,1,5.22,9.59,12.67,12.67,0,0,1-3.92,9.7A12.48,12.48,0,0,1,159.72,189.05Z" transform="translate(-97.78 -111.63)" fill="#010101"/><rect x="73.23" y="7.11" width="14" height="2" fill="#010101"/><rect x="73.23" y="15.61" width="7.4" height="2" fill="#010101"/><rect x="73.23" y="24.21" width="14" height="2" fill="#010101"/><rect x="73.23" y="32.71" width="7.4" height="2" fill="#010101"/><rect x="73.23" y="41.21" width="14" height="2" fill="#010101"/><rect x="73.23" y="49.71" width="7.4" height="2" fill="#010101"/><path d="M159.71,183.44a7.61,7.61,0,0,1-7.6-7.6c0-3,2.55-5.54,3.33-6.24l1.34,1.48c-.45.4-2.67,2.52-2.67,4.76a5.6,5.6,0,0,0,5.6,5.6,5.54,5.54,0,0,0,5.6-5.6,5.39,5.39,0,0,0-1.64-3.91,5.21,5.21,0,0,0-3.83-1.49h-1.13v-37.5h2v35.54a7.17,7.17,0,0,1,4.36,2,7.39,7.39,0,0,1,2.24,5.34A7.52,7.52,0,0,1,159.71,183.44Z" transform="translate(-97.78 -111.63)" fill="#010101"/><path d="M119.51,141.64h-.1a1.88,1.88,0,0,1-1.9-1.8,1.94,1.94,0,0,1,1.56-1.87,1.75,1.75,0,0,1,1.48.34,1.85,1.85,0,0,1,.66,1.43,1.87,1.87,0,0,1-1.61,1.88Zm-.1-1.72h.09s0,0,0-.08,0-.2-.1-.2Zm-.2-.17a.12.12,0,0,0,0,.08l0-.12Z" transform="translate(-97.78 -111.63)" fill="#010101"/><path d="M123,120.54h-.1a1.88,1.88,0,0,1-1.9-1.8,1.94,1.94,0,0,1,1.56-1.87,1.78,1.78,0,0,1,1.48.34,1.85,1.85,0,0,1,.66,1.43,1.87,1.87,0,0,1-1.61,1.88Zm-.1-1.72H123s0,0,0-.08,0-.2-.1-.2Zm-.2-.17a.12.12,0,0,0,0,.08l0-.12S122.71,118.64,122.71,118.65Z" transform="translate(-97.78 -111.63)" fill="#010101"/><path d="M132.41,152.24h-.1a1.87,1.87,0,0,1-1.9-1.8,1.94,1.94,0,0,1,1.56-1.87,1.77,1.77,0,0,1,1.48.34,1.85,1.85,0,0,1,.66,1.43,1.87,1.87,0,0,1-1.61,1.88Zm-.1-1.72h.09s0-.05,0-.08,0-.2-.1-.2Zm-.2-.17a.12.12,0,0,0,0,.08l0-.12Z" transform="translate(-97.78 -111.63)" fill="#010101"/><path d="M145.31,140.44h-.1a1.87,1.87,0,0,1-1.9-1.8,1.94,1.94,0,0,1,1.56-1.87l.24,0a1.85,1.85,0,0,1,.29,3.68Zm-.3-1.89a.31.31,0,0,0,.05.17l0-.21S145,138.54,145,138.55Z" transform="translate(-97.78 -111.63)" fill="#010101"/><path d="M117.11,161.54H117a1.88,1.88,0,0,1-1.9-1.8,1.94,1.94,0,0,1,1.55-1.87l.25,0a1.85,1.85,0,0,1,.29,3.68Zm-.3-1.89a.24.24,0,0,0,.06.17l-.05-.21S116.81,159.64,116.81,159.65Z" transform="translate(-97.78 -111.63)" fill="#010101"/><path d="M126.51,166.24h-.1a1.87,1.87,0,0,1-1.9-1.8,1.94,1.94,0,0,1,1.55-1.87l.25,0a1.85,1.85,0,0,1,.29,3.68Zm-.3-1.89a.24.24,0,0,0,.06.17l0-.21Z" transform="translate(-97.78 -111.63)" fill="#010101"/></svg>