<svg xmlns="http://www.w3.org/2000/svg" width="85.85" height="74.3" viewBox="0 0 85.85 74.3"><title>time</title><path d="M128.91,122.73v2h-29v-2h18.18a34.3,34.3,0,0,1,2.39-8.87l1.86.74a33.37,33.37,0,0,0-2.24,8.13Z" transform="translate(-99.91 -86.73)" fill="#010101"/><path d="M180,145.89a34,34,0,0,1-58.72-3.71l1.79-.9a32,32,0,0,0,55.27,3.5,31.9,31.9,0,0,0-8.92-44.31,32.12,32.12,0,0,0-43.8,8.26h13.25v2h-29v-2H124l-.53-.35a34,34,0,0,1,27.43-15.15v-4.5h-4v-2h10v2h-4v4.5a33.88,33.88,0,0,1,17.65,5.57A33.9,33.9,0,0,1,180,145.89Z" transform="translate(-99.91 -86.73)" fill="#010101"/><path d="M169.62,110.44,168.2,109l-12.87,12.87a5.67,5.67,0,0,0-3.42-1.16,6.27,6.27,0,0,0-6,6.5,6.72,6.72,0,0,0,1.92,4.76l-5.5,3.93,1.16,1.63,6.07-4.34a5.65,5.65,0,0,0,2.35.52,6.27,6.27,0,0,0,6-6.5,6.73,6.73,0,0,0-1.2-3.88Zm-17.71,21.29a4.53,4.53,0,1,1,4-4.5A4.28,4.28,0,0,1,151.91,131.73Z" transform="translate(-99.91 -86.73)" fill="#010101"/><path d="M132.91,135.73v2h-26v-2h12a31,31,0,0,1-1-6.76l2-.08a29.58,29.58,0,0,0,1.1,6.84Z" transform="translate(-99.91 -86.73)" fill="#010101"/></svg>