<?xml version="1.0" encoding="utf-8"?>
<!-- Generator: Adobe Illustrator 23.1.1, SVG Export Plug-In . SVG Version: 6.00 Build 0)  -->
<svg version="1.1" id="Livello_1" xmlns="http://www.w3.org/2000/svg" xmlns:xlink="http://www.w3.org/1999/xlink" x="0px" y="0px"
	 viewBox="0 0 45 45" style="enable-background:new 0 0 45 45;" xml:space="preserve">
<style type="text/css">
	.st0{fill:#FFFFFF;}
	.st1{fill:none;stroke:#000000;stroke-width:1.0126;stroke-linecap:round;stroke-linejoin:round;stroke-miterlimit:10;}
</style>
<path id="Rectangle_453" class="st0" d="M8,0h29c4.4,0,8,3.6,8,8v29c0,4.4-3.6,8-8,8H8c-4.4,0-8-3.6-8-8V8C0,3.6,3.6,0,8,0z"/>
<path id="Twitter_1_" class="st1" d="M36.5,11.5c-1.1,0.7-2.4,1.2-3.7,1.4c-1.1-1.2-2.6-1.9-4.3-1.9c-3.2,0-5.9,2.7-5.9,6.1
	c0,0.5,0,0.9,0.1,1.4c-5-0.3-9.2-2.7-12.2-6.4c-0.5,0.9-0.8,1.9-0.8,3c0,2.1,1,3.9,2.6,5.1c-1,0-1.9-0.3-2.6-0.7v0.1
	c0,2.9,2,5.4,4.8,6c-0.5,0.1-1,0.2-1.5,0.2c-0.4,0-0.7,0-1.1-0.1c0.7,2.4,2.9,4.2,5.5,4.2c-2.1,1.5-4.7,2.5-7.4,2.5
	c-0.5,0-0.9,0-1.4-0.1c2.6,1.7,5.7,2.7,9,2.7c10.8,0,16.8-9.2,16.8-17.2c0-0.3,0-0.5,0-0.8c1.1-0.8,2.1-1.9,2.9-3.1
	c-1,0.5-2.2,0.8-3.3,0.9C35.1,14,36.1,12.9,36.5,11.5z"/>
</svg>
