<?xml version="1.0" encoding="utf-8"?>
<!-- Generator: Adobe Illustrator 24.0.1, SVG Export Plug-In . SVG Version: 6.00 Build 0)  -->
<svg version="1.1" id="Livello_1" xmlns="http://www.w3.org/2000/svg" xmlns:xlink="http://www.w3.org/1999/xlink" x="0px" y="0px"
	 viewBox="0 0 45 45" style="enable-background:new 0 0 45 45;" xml:space="preserve">
<style type="text/css">
	.st0{fill:#FFFFFF;}
	.st1{fill:none;stroke:#000000;stroke-width:1.0126;stroke-linecap:round;stroke-linejoin:round;stroke-miterlimit:10;}
</style>
<path id="Rectangle_453" class="st0" d="M8,0h29c4.4,0,8,3.6,8,8v29c0,4.4-3.6,8-8,8H8c-4.4,0-8-3.6-8-8V8C0,3.6,3.6,0,8,0z"/>
<path class="st1" d="M35,19.4c-1,2.1-2.1,4.1-3.6,6.1l0,0c-1.9,2.6-3.7,5-6,7.1c-1.3,1.2-2.7,2.3-4.4,2.9c-0.6,0.2-1.1,0.3-1.5,0.3
	c-0.6,0-1.3-0.2-2.3-1.5c-1-1.3-1.5-2.8-1.8-4.2c-0.9-3.3-1.8-6.5-2.7-9.7c-0.3-1-0.7-1.9-1.2-2.6c-0.2-0.4-0.6-0.9-1.2-1.3
	c-0.4-0.3-0.8-0.5-1.3-0.5c-0.4,0-0.9,0.1-1.3,0.4c-0.3,0.2-0.8,0.5-1.2,0.7L6.2,17c1.9-1.8,4.9-4.3,5.1-4.4
	c1.1-0.9,2.3-1.6,2.9-1.7c0.2,0,0.3,0,0.5,0c0.9,0,1.5,0.4,2,1.1c0.7,1.1,0.9,2.5,1.1,3.7c0.1,0.7,0.2,1.4,0.3,2.1
	c0.3,2.3,0.7,4.6,1.4,6.9c0.2,0.7,0.5,1.5,1,2.4c0.6,1.1,1.4,1.3,2,1.3c0.5,0,1.1-0.2,1.6-0.6c0.3-0.3,0.6-0.6,0.9-0.9
	c1.6-1.9,2.8-4.1,3.6-6.2c0.3-0.9,0.4-1.7,0.3-2.4c0-1.6-1.3-2.9-2.9-3c-0.2,0-0.4,0-0.6,0c-0.2,0-0.3,0-0.5,0
	c0.6-1.3,1.6-2.6,2.7-3.5c1.1-0.8,2.7-1.3,4.2-1.3c0.6,0,1.2,0.1,1.6,0.2c1.2,0.4,1.9,1.1,2.2,2.5C36.2,15.2,35.9,17.3,35,19.4z"/>
</svg>
