<svg xmlns="http://www.w3.org/2000/svg" width="94.15" height="75.56" viewBox="0 0 94.15 75.56"><title>winter</title><path d="M186.87,158a17.54,17.54,0,0,1-16.81,12.21,1,1,0,0,1,0-2,15.57,15.57,0,1,0-7-29.41,1,1,0,0,1-1.29-.34,1,1,0,0,1-.46-.7,26.33,26.33,0,0,0-51.83-1.35,1,1,0,0,1-1.08.79.93.93,0,0,1-.4.19,15.42,15.42,0,0,0-12.4,15.22,15.62,15.62,0,0,0,15.6,15.6,1,1,0,1,1,0,2,17.62,17.62,0,0,1-17.6-17.6,17.41,17.41,0,0,1,14-17.18h0a28,28,0,0,1,12-17.37,28.31,28.31,0,0,1,43.47,18.49,17.31,17.31,0,0,1,12.35-.64A17.63,17.63,0,0,1,186.87,158Z" transform="translate(-93.56 -113.33)" fill="#010101"/><path d="M126.86,188.89l-.25,0a1,1,0,0,1-.72-1.22l8.5-33.5a1,1,0,0,1,1.94.5l-8.5,33.5A1,1,0,0,1,126.86,188.89Z" transform="translate(-93.56 -113.33)" fill="#010101"/><path d="M115.76,188.89l-.24,0a1,1,0,0,1-.73-1.21l3.6-14.5a1,1,0,1,1,1.94.48l-3.6,14.5A1,1,0,0,1,115.76,188.89Z" transform="translate(-93.56 -113.33)" fill="#010101"/><path d="M120.76,168.59a1.15,1.15,0,0,1-.26,0,1,1,0,0,1-.71-1.23l3.5-13.2a1,1,0,0,1,1.94.52l-3.5,13.19A1,1,0,0,1,120.76,168.59Z" transform="translate(-93.56 -113.33)" fill="#010101"/><path d="M158.9,163.74a1,1,0,0,1-1,1h-3l1.49,2.6a1,1,0,0,1-.37,1.37,1,1,0,0,1-1.37-.37l-1.48-2.58-1.48,2.58a1,1,0,0,1-1.74-1l1.49-2.6h-3a1,1,0,1,1,0-2h3l-1.49-2.6a1,1,0,0,1,1.74-1l1.48,2.58,1.48-2.58a1,1,0,0,1,1.74,1l-1.49,2.6h3A1,1,0,0,1,158.9,163.74Z" transform="translate(-93.56 -113.33)" fill="#010101"/><path d="M149.44,176.75a1,1,0,0,1-1,1h-3l1.49,2.6a1,1,0,0,1-.37,1.37,1,1,0,0,1-.49.13,1,1,0,0,1-.87-.5l-1.48-2.59-1.49,2.59a1,1,0,0,1-.86.5,1,1,0,0,1-.87-1.5l1.49-2.6h-3a1,1,0,0,1,0-2h3l-1.49-2.6a1,1,0,1,1,1.73-1l1.49,2.59,1.48-2.59a1,1,0,1,1,1.73,1l-1.49,2.6h3A1,1,0,0,1,149.44,176.75Z" transform="translate(-93.56 -113.33)" fill="#010101"/><path d="M168.36,183.78a1,1,0,0,1-1,1h-3l1.5,2.61a1,1,0,0,1-.37,1.36,1,1,0,0,1-1.37-.37l-1.48-2.58-1.48,2.58a1,1,0,0,1-1.37.37,1,1,0,0,1-.37-1.36l1.5-2.61h-3a1,1,0,0,1,0-2h3l-1.49-2.6a1,1,0,0,1,1.74-1l1.48,2.58,1.48-2.58a1,1,0,0,1,1.74,1l-1.49,2.6h3A1,1,0,0,1,168.36,183.78Z" transform="translate(-93.56 -113.33)" fill="#010101"/></svg>