<svg xmlns="http://www.w3.org/2000/svg" width="220" height="235" viewBox="0 0 220 235"><title>letter-d</title><rect width="220" height="235" fill="none"/><path d="M13.33,0H102a118.47,118.47,0,0,1,42.55,7.53A90.07,90.07,0,0,1,177.3,29.46a102.59,102.59,0,0,1,20.95,36.65c4.91,14.73,7.53,31.75,7.53,51.39s-2.62,36.66-7.53,51.39-11.78,26.83-20.95,36.65c-8.83,9.82-20,17-32.73,21.93A117.18,117.18,0,0,1,102,235H13.33ZM101.7,189.83c15.38,0,27.16-4.25,36-12.76s13.09-22.26,13.09-41.24V99.5c0-19-4.25-32.73-13.09-41.24s-20.62-12.77-36-12.77H64.39V189.83Z" fill="#010101"/></svg>