<svg xmlns="http://www.w3.org/2000/svg" width="220" height="235" viewBox="0 0 220 235"><title>letter-r</title><rect width="220" height="235" fill="none"/><path d="M67.88,235H16.57V0H128c10.79,0,20.59,1.63,29.42,5.23a60.21,60.21,0,0,1,22.22,15.36C185.87,27.13,190.45,35,194,44.45a90.64,90.64,0,0,1,4.9,30.72c0,16-3.59,29.75-10.45,41.84-7.2,11.77-17.65,20.59-32,25.82L202.54,235H145.67l-41.18-86.29H67.88Zm53.93-129.1c7.52,0,13.73-2,18-5.89s6.53-9.8,6.53-17.32v-15c0-7.52-2.29-13.4-6.53-17.33s-10.46-5.88-18-5.88H67.88V105.6h53.93Z" fill="#010202"/></svg>